<svg xmlns="http://www.w3.org/2000/svg" width="800" height="800" aria-hidden="true" class="iconify iconify--noto" viewBox="0 0 128 128"><radialGradient id="a" cx="44" cy="29.1" r="91" gradientTransform="rotate(51 36 25)" gradientUnits="userSpaceOnUse"><stop offset=".5" stop-color="#17a1f3"/><stop offset=".8" stop-color="#1b7ffa"/><stop offset="1" stop-color="#1366f0"/><stop offset="1" stop-color="#1160ee"/></radialGradient><path fill="url(#a)" d="M3 65c1 24 17 59 62 59 43-1 60-37 59-62-1-26-22-58-62-58C22 5 2 38 3 65"/><path fill="#7add8a" d="M91 94q-2-1-2 1l-2 2-3 3v7h2l2-4 1-2 2-5z"/><path fill="#bedc9d" d="m66 40 1 1 1-1-1-1z"/><path fill="#95da93" d="m45 32-2 1 1 3 1-1z"/><path fill="#7add8a" d="m41 17-2 1v2h-2q-3 2-2 3l1 1 1-1v1h3l1-2 1-3z"/><path fill="#fff" d="m38 9-2 3-3 3h2l3-1 3-1 5-2 7-3 2-1-4-1h-3l-5 2z"/><path fill="#7add8a" d="m69 8 1-1 2-2s12 0 27 11c14 10 19 22 19 22v2l-1 8-1 8c0 2 1 7-1 7s-2-2-3-4l-2-5-1-2h-2l-5-5h-2l-4 1q-2 0-3-2c-1-2-2 1-3 1l-3-1-2-2q-2 0-1 1l2 2 1 2 3 2 2-1 1-2 2 2 2 2q1 3-1 6l-2 2-2 1-2 2-3 2-3 1-2-3-2-3-2-2-2-3-1-1-1-1-1-2-2-2-1-1v2l1 3 1 2q1 0 2 1l1 4 2 1 1 2 4 3 1 3q1 1 4-1l4-2v6l-2 4-3 4q-3 2-5 8v9l-1 3-4 5-1 3-3 4-3 3-3 2h-7l-3-3-2-1-2-2-3-5q-2-2-3-4 0-4 2-4 1-1-2-5l-4-6-1-5-1-2-3-1-3-2-5 2q-2 0-3-2c-1-2-2 1-3 1l-3-3-2-3-1-1q-1 1-2-3v-5l2-6v-3l2-3 2-2 3-2q2-2 1-2l1-3 3-2h4l4-1 3-1 4 1 1 1-1 2 2 1h1l2 2 3 1 2-2h4l8 2 2-1 2-1v-7l-3 1h-2l-1 1-3-2-1-2 3-2h3l2-1 1 1h4l2-2h-2l-3-3-3 1-2-1-3 2-1 1v2l-2 1-2 1v4h-2v-2l-2-3-1-2-2-2-2-1 1 2 2 4-1 2-1-2-3-2-2-3-2 2h-2l-2 2-2 2-1 2-3 1-1 1-2-2-1-1 2-4 1-2h5l1-1v-1l-1-1v-1l1-1 1-1 2 1 2-2 2-2h2l1-1h2l2 1h2l2-2 1-1 1-1 2-1 2-1h-4l1-2v-1l-2 1-1 2v1l-1 2-3 1-1-1v-1l-2 1v-3l2-2 2-1 1-1 4-3 4-1h2l3 2 2 1 4-1-1-2z"/><radialGradient id="b" cx="64.3" cy="57.2" r="21.4" gradientTransform="matrix(0 -1 3 1 -140 56)" gradientUnits="userSpaceOnUse"><stop offset=".1" stop-color="#e3dda6"/><stop offset=".9" stop-color="#e3dda6" stop-opacity=".1"/><stop offset="1" stop-color="#e3dda6" stop-opacity="0"/></radialGradient><path fill="url(#b)" d="m41 82-1-2-3-1-3-2-5 2q-2 0-3-2c-1-2-2 1-3 1l-3-3-2-3-1-1q-1 1-2-3v-5l2-6v-3l2-3 2-2 3-2q2-2 1-2l1-3 3-2h4l4-1 3-1 4 1 1 1-1 2 2 1h1l2 2 3 1 2-2h4l8 2 2-1 2-1v-7l-3 1h-2l-1 1-3-2-1-2 3-2h3l2-1 1 1h4l2-2h-2l-3-3q-5-1-6-9 1-8 4-8l4-1-1-2h-2l1-1 2-2s12 0 27 11c14 10 19 22 19 22v2l-1 8-1 8c0 2 1 7-1 7s-2-2-3-4l-2-5-1-2h-2l-5-5h-2l-4 1q-2 0-3-2c-1-2-2 1-3 1l-3-1-2-2q-2 0-1 1l2 2 1 2 3 2 2-1 1-2 2 2 2 2q1 3-1 6l-2 2-2 1-2 2-3 2-3 1-2-3-2-3-2-2-2-3-1-1-1-1-1-2-2-2-1-1v2l1 3 1 2q1 0 2 1l1 4 2 1 1 2 4 3 1 3q1 1 4-1l4-2v6l-2 4-3 4q-3 2-5 8s-10 6-19 5c-10-1-21-11-21-11"/><radialGradient id="c" cx="87.9" cy="42.6" r="18.6" gradientTransform="matrix(-1 -1 1 -1 107 156)" gradientUnits="userSpaceOnUse"><stop offset=".1" stop-color="#e3dda6"/><stop offset=".9" stop-color="#e3dda6" stop-opacity=".1"/><stop offset="1" stop-color="#e3dda6" stop-opacity="0"/></radialGradient><path fill="url(#c)" d="m41 82-1-2-3-1-3-2-5 2q-2 0-3-2c-1-2-2 1-3 1l-3-3-2-3-1-1q-1 1-2-3v-5l2-6v-3l2-3 2-2 3-2q2-2 1-2l1-3 3-2h4l4-1 3-1 4 1 1 1-1 2 2 1h1l2 2 3 1 2-2h4l8 2 2-1 2-1v-7l-3 1h-2l-1 1-3-2-1-2 3-2h3l2-1 1 1h4l2-2h-2l-3-3q-5-1-6-9 1-8 4-8l4-1-1-2h-2l1-1 2-2s12 0 27 11c14 10 19 22 19 22v2l-1 8-1 8c0 2 1 7-1 7s-2-2-3-4l-2-5-1-2h-2l-5-5h-2l-4 1q-2 0-3-2c-1-2-2 1-3 1l-3-1-2-2q-2 0-1 1l2 2 1 2 3 2 2-1 1-2 2 2 2 2q1 3-1 6l-2 2-2 1-2 2-3 2-3 1-2-3-2-3-2-2-2-3-1-1-1-1-1-2-2-2-1-1v2l1 3 1 2q1 0 2 1l1 4 2 1 1 2 4 3 1 3q1 1 4-1l4-2v6l-2 4-3 4q-3 2-5 8s-10 6-19 5c-10-1-21-11-21-11"/><radialGradient id="d" cx="61.3" cy="118.8" r="17.9" gradientTransform="matrix(0 -1 2 0 -178 129)" gradientUnits="userSpaceOnUse"><stop offset="0" stop-color="#e3dda6"/><stop offset=".8" stop-color="#e3dda6" stop-opacity="0"/></radialGradient><path fill="url(#d)" d="m59 117-3-3-2-1-2-2-3-5q-2-2-3-4 0-3 2-4 1-2-2-5l-4-6s9-1 18 1 21 9 21 9l-1 3-4 5-1 3-3 4-3 3-3 2z"/><path fill="#4b9ced" d="m80 25-3 3 1 2 2 1 2 4q1 2 4 2t1-2l-3-4-3-2v-2z"/><path fill="#4186f1" d="M72 84h-2l-1 2 2 1z"/></svg>