<svg xmlns="http://www.w3.org/2000/svg" width="800" height="800" aria-hidden="true" class="iconify iconify--fxemoji" viewBox="0 0 512 512"><path fill="#3bccff" d="m168 31 29-9 33-6c3 10 2 13-1 30l-7-14q-9-10-16 3-6 11-19 11l-4-2q-4-13-15-13m147 15zl-9-11-10-17-16-2q3 26 35 30m-68 92q4-1 8-4c4-1 11 4 11-3q0-5-8-10l-13-8-3 3q5 9-3 20zm251 119A242 242 0 1 1 65 108l17 11q9 6 8 16v18q2 13 8 23 21 23 38 49 6 8 8-3 1-2 4-5l4 4q15 32 49 38 7 2 9 6 4 13 16 10 11-1 16 9 5 15 21 15 12 0 7 12l-3 9c-7 22-5 42 15 57l9 8q13 12 13 29 1 21-7 40c-3 7-6 16 1 22 7 5 15 0 22-4l8-6 29-22q17-10 24-27 10-19 28-28c14-6 20-19 25-31q5-14-7-23-10-6-22-10-11-3-17-14-18-32-56-32-7 1-13-1-17-6-33 5-20 12-22-13c0-5 0-12-6-13-12-3-18-7-10-20l-4-7q-8 0-15 2-5 4-10 9c-4 3-14 1-17-4-7-11-5-32 6-39 10-7 22-5 34-5q9 2 12 11c4 5 7 14 16 11 8-2 8-11 9-18v-2c-2-14 6-23 14-32 9-11 17-19 32-16q6-1 12-6-2-5-6-9c-6-3-3-6 1-7q9-4 18 2 12 9 17-1 6-12-5-19l-65-40q-8-2-14 4-2 5-3 12v8q-3 8-10 5-13-13-31-9c-4 1-10-3-10-9q-2-11 9-12 14 2 17-12c0-5 14-8 18-3 8 9 18 9 27 13l13 2q13 1 6-13l-1-3h1-1c21 9 44 14 60 34 12 14 30 12 42-2l-10-12c44 37 75 88 85 147z"/><path fill="#13a031" d="m306 35-10-17 34 8q36 12 66 33l8 7 6 4 10 12c-12 14-30 16-42 2-16-20-39-25-60-34l-3-4h-1 1zm20 199q-3-2-7-1-13 2-23-8c-3-3-9-3-10-4h-10q-18 4-19 13 0 10 20 9 14-1 25 8c8 7 21 6 28-1q4-4 3-8-2-5-7-8m169-18c-8-8-24-10-29 13s8 66 30 58q4-36-1-71M82 119l-17-11 26-28 27-22a241 241 0 0 1 50-27q11 0 15 13l4 2q13 1 19-11 7-14 16-3l7 14c3-17 4-20 1-30h5a245 245 0 0 1 45 0q3 26 35 30l3 4 1 3q7 14-6 13l-13-2c-9-4-19-4-27-13-4-5-18-2-18 3q-3 13-17 12-10 1-9 12c0 6 6 10 10 9q18-4 31 9 7 4 10-5v-8q1-7 3-12 6-6 14-4l65 40q11 7 5 19-6 10-17 1-9-6-18-2c-4 1-7 4-1 7q4 4 6 9-6 5-12 6c-15-3-23 5-32 16-8 9-16 18-14 32v2c-1 7-1 16-9 18-9 3-12-6-16-11q-3-9-12-11c-12 0-24-2-34 5-11 7-13 28-6 39 3 5 13 7 17 4q5-5 10-9 7-2 15-2l4 7c-8 13-2 17 10 20 6 1 6 8 6 13q2 25 22 13 16-12 33-5 6 2 13 1 38 0 56 32 6 11 17 14 12 4 22 10 12 9 7 23c-5 12-11 25-25 31q-19 9-28 28-7 17-24 27l-29 22-8 6c-7 4-15 9-22 4-7-6-4-15-1-22q8-19 7-40 0-17-13-29l-9-8c-20-15-22-35-15-57l3-9q6-12-7-12-16 0-21-15-5-10-16-9-12 3-16-10-2-4-9-6-34-6-49-38l-4-4q-3 3-4 5-2 11-8 3-17-26-38-49-6-10-8-23v-18q0-10-8-16"/></svg>