<svg xmlns="http://www.w3.org/2000/svg" width="500" height="500"><defs><linearGradient id="a" x1="0%" x2="100%" y1="0%" y2="100%"><stop offset="0%" stop-color="rgba(55, 125, 5, 0.7)"/><stop offset="50%" stop-color="rgba(55, 125, 5, 0.2)"/><stop offset="100%" stop-color="rgba(55, 125, 5, 0.05)"/></linearGradient><filter id="b" width="140%" height="140%" x="-20%" y="-20%"><feDropShadow dx="0" dy="8" flood-color="#000" flood-opacity=".1" stdDeviation="10"/></filter></defs><path fill="url(#a)" stroke="rgba(255, 255, 255, 0.6)" stroke-width="2" d="m120 341-9-5-6-12-19-7-1-15-8-4 3-8-8-9-4-6-3-9 17-1 8-7 15 6 2 5 32 6 6 11-4 16 10 4 7-2 12 6 7 8h15l-1 7 7 4 7 1 20-9 9-1 8 4-1 13 9 7 4 3 10-8 6-2 15 5 14 1 19 6 2 4 15 7 11-2 19-11 4 11 7 4h19l9-4 12 6h6l18-5 17 4 6-6 1-9 12 9 4 12-12 7-7 7-9 3-12 10v1l-1 3h1l-3 6 1 4 6 2 7 13 8 2-3 10 4 11-10-5-9 3-9 8 2 7 6 4-3 5-5-2-5 1-2-5-13-2-7 13-14-3-3 13-11 3-3 3 1 13-4 3-6 21-9-1-4 8-14-6-10 4-4-4-10 10-4 12-10-7-7-1 2-9-15-4-1-9-7-8-11 4-3-2-15-5-7 14 1 7-12 6-16-3-4 5-4-2-19 15-5-5-12 4-1-8-8-6-21 12-8 10-3-4-11-6-2-9-6-3-16-1-7-10-7 9-6 2-15 2-20-2 2-2 1-9-4-8-9-5-4-21v-16l18-12 10-3 9-6 3 1 6-4 8-11 14-7v-6l6-3 6 5 10 1 2-7 21 5 4-4 2-6-14-8-11-8-6 2-22-15 3-11 8-4-2-10-23-7 1-5 12-5 6-7 16 3z" filter="url(#b)"/></svg>