<svg xmlns="http://www.w3.org/2000/svg" xml:space="preserve" width="800" height="800" viewBox="0 0 91 91"><path fill="#45596b" d="M76 31H3q-2 0-2-3V12l2-2h73l2 2v16q0 3-2 3M6 26h67V15H6z"/><path fill="#45596b" d="M18 22q-3 0-3-3V5a3 3 0 1 1 5 0v14q0 3-2 3M40 22q-3 0-3-3V5a3 3 0 0 1 5 0v14q0 3-2 3M61 22q-2 0-2-3V5a3 3 0 0 1 5 0v14q0 3-3 3"/><g fill="#647f94"><path d="M15 41h8v8h-8zM15 63h8v8h-8z"/><path d="M65 48h2l10-9 1-2v-9l-2-2H3l-2 2v56l2 2h65q10-1 10-9V52a3 3 0 0 0-4-2L64 60l-1 2v8H37V42h26v5zM27 72q0 3-3 3H13q-2 0-2-3V61l2-2h11q3 0 3 2zm0-22q0 3-3 3H13q-2 0-2-3V40q0-3 2-3h11q3 0 3 3z"/></g><path fill="#6ec4a7" d="M50 64zl-1-1-7-11a3 3 0 1 1 4-3l5 8 37-31a3 3 0 0 1 3 4L51 63z"/></svg>