<svg xmlns="http://www.w3.org/2000/svg" xml:space="preserve" viewBox="0 0 512 512"><path d="M365 323c13-63 3-115-29-147q-35-35-96-35c-65 0-145 33-190 77a172 172 0 0 0 244 244c32-33 59-86 71-139" style="fill:#f4c514"/><path d="M365 323c13-63 3-115-29-147L50 462a171 171 0 0 0 244 0c32-33 59-86 71-139" style="fill:#e9d535"/><path d="M501 97q0-9-6-16l-64-64c-8-9-23-9-31 0L124 292c-8 9-8 23 0 32l64 64a22 22 0 0 0 32 0l275-276q6-7 6-15" style="fill:#e9d535"/><path d="M501 97q0-9-6-16l-32-32-307 307 32 32a22 22 0 0 0 32 0l275-276q6-7 6-15" style="fill:#dd9520"/><path d="m230 366-84-84a22 22 0 1 0-32 31l85 85a22 22 0 0 0 31 0c9-9 9-23 0-32M505 91 421 7a22 22 0 1 0-32 31l85 85a22 22 0 0 0 31 0c9-9 9-23 0-32M284 266a37 37 0 0 0-38-38 37 37 0 0 0-37 38 37 37 0 0 0 37 37 37 37 0 0 0 38-37" style="fill:#5b699c"/><path d="m230 366-42-42-32 32 43 42a22 22 0 0 0 31 0c9-9 9-23 0-32M490 130q8 0 15-7c9-9 9-23 0-32l-42-42-32 32 43 42q7 7 16 7M246 303a37 37 0 0 0 38-37q0-16-11-27l-53 53q11 11 26 11" style="fill:#2d4175"/></svg>