<svg xmlns="http://www.w3.org/2000/svg" xml:space="preserve" viewBox="0 0 480 480"><g transform="translate(953 -540)"><path d="M-953 780a240 240 0 1 0 480 0 240 240 0 0 0-480 0" style="fill:#3b3c3d"/><path d="M-713 540a240 240 0 0 0-239 263l1 2 4 25 1 1h468a240 240 0 0 0-235-291" style="fill:#fc987a"/><path d="M-792 673c-11 0-21 4-21 9v35h-17l-22-29-36 46h-27q-5 2-5 12v6h-31a240 240 0 0 0 6 89h366q10-1 11-13c1-12-5-12-11-12h-41v-1q0-11-10-12h-18l-28-37v-2q-1-10-11-12h-35v-26q0-8-5-9h-14v-35c0-5-10-9-22-9zM-529 803l-2 8v14h-2v-11l-1-5-1 5v7h-1v-6l-1-2-2 2v5q0 3 2 3l2-1v5l3 1h1q0 8 2 9 3-1 3-9v-2h2l4-2 2-4v-2h1l2-1v-4l-2-2-1 2v4-7l-2-4-2 4v9l-1-1v-6l-1-2-1 2v6l1 2h2v2h-4v-11q0-7-3-8m34 13-1 4v8l-1-1v-6l-1-2v6h-1v-4l-1 1v4h2v2l1 1h1l1 4q1 0 2-4v-1h1l2-1 1-2v-1h1v-4l-1 1v2-3l-1-3-1 3v4h-1v-5l-1 2v3l1 1 1-1v2h-2v-6z" style="fill:#3b3c3d"/><path d="M-828 780c-5 0-9 13-9 28v48h-5v-39q0-13-5-15-4 2-5 15v26l-1-1v-20q0-8-5-8-6 0-4 8v17q0 8 4 8l2 1 4-1v1l2 12v1q1 5 9 5l4-1v1q1 24 7 28l-9 14v1l-1-3q-1-4-3-1l-1 1-5 8-1 1v-3l-1-1-4 4-8 14-3 9q0 2 4-4l8-14 1-2 1 1-12 20-6 15q1 2 8-10l14-24 3-7 1 1v2l-21 38-4 8 5 4 1-2 17-29v6l2 3-3 5h-1v-4q-2-3-5 4l-7 13-3 5 3 2 1-1 8-14 1-2h1l-11 18 5 3 5-8-1 1-4 7 3 3 3-5 2-9-1-1 2-5q7-10 7-15v-12l-2-4 5-7q10-20 11-26 5-8 5-26v-9l8 1q10 0 13-5 5-3 6-16v-6l3 2 3-1q3-1 4-6v-12q0-5-5-6-6 0-4 6v12l-1 1v-21q0-15-7-16c-7-1-6 7-6 16v28l-2-2v-20q0-7-5-8-6 0-4 8v18q1 7 4 8h3l4-1 1 7a22 22 0 0 0-15 1v-37c0-15-4-28-8-28M-920 802q-2 1-2 9v15h-2v-13l-1-4-2 4v9l-1-1h1v-6q0-3-2-3t-1 3v6l1 2h2v1l1 3h-1l4 2h1q0 8 2 9 3-1 3-9v-3l3 1 4-2q2 0 2-5v-2l1 1 1-1 1-2v-4l-1-1-2 1v5-7q0-5-2-5t-2 5v9l-1-1v-6l-1-3q-1 0-2 3v6l1 2h3v2h-5v-11q0-8-3-9M-716 810q-2 1-2 7v11h-1v-9l-1-4-1 4v6l-1-1v-4l-1-2-1 2v4l1 2h2v3l2 1h1q0 7 2 7t2-7v-2h2l3-1 1-4v-1h1l1-1v-3l-1-1-1 1v3-5l-1-4-2 4v7-5l-1-2-1 2v4l1 2 1-1v2h-3v-8q0-7-2-7" style="fill:#fc987a"/><radialGradient id="a" cx="-1552.1" cy="955.3" r="36.6" gradientTransform="matrix(1 0 0 -1 954 1482)" gradientUnits="userSpaceOnUse"><stop offset="0" style="stop-color:#fcd116"/><stop offset="1" style="stop-color:#fcd116;stop-opacity:0"/></radialGradient><path d="M-618 560a37 37 0 1 0 55 33q-25-20-55-33" style="fill:url(#a)"/><path d="m-646 608 12 8q-6 4-8 10l12-8 5 4-3-5 7-4-9 2q-6-6-16-7m21 14 21-14q-16 3-21 14m-17 4q-4-12-21-13z" style="fill:#3b3c3d"/></g></svg>