<svg xmlns="http://www.w3.org/2000/svg" width="500" height="500"><defs><linearGradient id="a" x1="0%" x2="100%" y1="0%" y2="100%"><stop offset="0%" stop-color="rgba(55, 125, 5, 0.7)"/><stop offset="50%" stop-color="rgba(55, 125, 5, 0.2)"/><stop offset="100%" stop-color="rgba(55, 125, 5, 0.05)"/></linearGradient><filter id="b" width="140%" height="140%" x="-20%" y="-20%"><feDropShadow dx="0" dy="8" flood-color="#000" flood-opacity=".1" stdDeviation="10"/></filter></defs><path fill="url(#a)" stroke="rgba(255, 255, 255, 0.6)" stroke-width="2" d="M418 310h-14l-21 6-4 2 4 14-3 5-9 5-6 11 6 7 17-6 13 5 3 3 8 12 11-11 13-6 23 22-1 23-4 17 10 14-2 8-15 11h-11l-9 8-34-4-9 24-12-11 7-16-2-21 6-20-17-12-8 10-15 9-3 10-18 6v-9l-32-20 6 7-5 16-9-7-14 9 1 14 8 10-7 5-14-6-15-2-5-11h6l5-18-2-9 8-14-23-24-31-18-7-12-9-2-5-31-7-13 8-6-12-13h-8l2-28-8-4-15 4-23 4-4-8-13 1-3-12-12-6-9 6H48l-3-13 6-11-7-4 6-27-20 1 1-10 11-7-5-11 17 4 8-8 15-3 17 6 10 12 17 5 10-2 7 13-10 12 19 15 6-19 16-16 17 10 20-11 8-1 24 13 14-2 7-9 17-4-6-13 11-23 23-8 8 7h15l9-7-11-13 21-12 5-15 24 1-2-3 1-2 3-21-14-10 1-11 1-11-9-10 13 4 6-3 16 21 20 9v12l-7 5 13 11 28 9 16-3 8 9 1 10-18 21-33 32-7 19-8 7 5 9-7 8 4 21-1 19 4 7-2 19 4 19 9 16z" filter="url(#b)"/></svg>