<svg xmlns="http://www.w3.org/2000/svg" xml:space="preserve" viewBox="0 0 378.4 378.4"><path d="M187 138h179l1-5a37 37 0 0 0-53-33 37 37 0 1 0-73 11 37 37 0 0 0-54 27" style="fill:#dedde0"/><path d="m257 208-98 54 13 116h195V208l-110 60zm40 90h30v30h-30zm-80 30h-30v-30h30z" style="fill:#006c70"/><path d="M77 328v-30h15V138H38L12 378h80v-50z" style="fill:#00d7df"/><path d="M145 138H92v160h15v30H92v50h80l-13-116z" style="fill:#00a1a7"/><path d="M207 73a39 39 0 0 0-56-36 39 39 0 1 0-77 12 39 39 0 0 0-57 29h190z" style="fill:#acabb1"/><path d="M187 298h30v30h-30zM297 298h30v30h-30zM77 328h30v-30H77z" style="fill:#fff"/><path d="M145 138h12v-30H27v30h65z" style="fill:#565659"/></svg>