<svg xmlns="http://www.w3.org/2000/svg" width="800" height="800" viewBox="0 0 120 120">
  <path fill="#80deea" d="M113 60a53 53 0 0 1-53 53A53 53 0 0 1 7 60 53 53 0 0 1 60 7a53 53 0 0 1 53 53"/>
  <path fill="#009688" fill-rule="evenodd" d="m27 61-5 9 2-6-4 6 1-3-2 3v-5l-1 5-3-9v10l-1-3-1 4-2-9v10l-1-4v5l14 2 3-7-2 3 1-5-1 3z"/>
  <path fill="#0288d1" d="M94 78a36 3 0 0 1-35 4 36 3 0 0 1-36-4 36 3 0 0 1 36-3 36 3 0 0 1 35 3"/>
  <path fill="#009688" fill-rule="evenodd" d="m108 58-3 11v-8l-2 8v-3l-1 3-1-5v6l-6-9 3 11-2-4v5l-5-9 1 7 1 6 16-2 2-8-2 3v-5l-1 3z"/>
  <path fill="#00695c" fill-rule="evenodd" d="m22 63 3 10v-7l2 7v-3 3l2-4v5l5-9-3 11 2-4v5l5-8-3 9 2-3-1 5-14-2-2-7 1 3v-5l1 3zm75 2-2 8v-6l-2 7v-3l-1 3-1-4v4l-4-7 2 9-1-3v4l-4-7 2 8-2-3 1 4 12-1 2-6-1 2v-4l-1 3z"/>
  <path fill="#3e2723" fill-rule="evenodd" d="M9 74a53 53 0 0 0 102 0s-34 5-51 5-51-5-51-5"/>
  <path fill="#4e342e" fill-rule="evenodd" d="M13 83a53 53 0 0 0 47 30 53 53 0 0 0 47-30z"/>
  <path fill="#00897b" d="m26 59-2 1-2-1 2-2z"/>
  <path fill="#3e2723" d="M25 53h2v24h-3zm4 2h1l-2 5-1-1z"/>
  <path fill="#00695c" d="m25 57-2 2-2-2 2-2z"/>
  <path fill="#00897b" d="m23 56-2 2-2-2 2-2z"/>
  <path fill="#00897b" d="m22 54-1 2-2-2 2-2z"/>
  <path fill="#00897b" d="m23 52-2 1-2-1 2-2z"/>
  <path fill="#00897b" d="m21 50-2 2-2-2 2-2z"/>
  <path fill="#00897b" d="m21 48-1 2-2-2 2-2z"/>
  <path fill="#00897b" d="m23 48-2 1-1-1 1-2z"/>
  <path fill="#00897b" d="m22 46-1 2-2-2 2-2z"/>
  <path fill="#00897b" d="m24 45-2 1-1-1 1-2zm-4 0-2 2-2-2 2-2z"/>
  <path fill="#00897b" d="m18 45-2 2-2-2 2-1z"/>
  <path fill="#00897b" d="m18 43-2 2-2-2 2-2z"/>
  <path fill="#00897b" d="m19 41-2 2-2-2 2-2z"/>
  <path fill="#00897b" d="m21 42-2 2-2-2 2-1z"/>
  <path fill="#00897b" d="m22 43-2 2-1-2 1-2z"/>
  <path fill="#00897b" d="m25 42-2 2-2-2 2-2zm1 13-1 2-2-2 2-1z"/>
  <path fill="#00897b" d="m25 54-2 2-2-2 2-2z"/>
  <path fill="#00897b" d="m26 52-2 2-1-2 1-2zm-2-2-2 1-2-1 2-2z"/>
  <path fill="#00897b" d="m27 50-2 2-2-2 2-1z"/>
  <path fill="#00695c" d="m26 49-2 2-2-2 2-2z"/>
  <path fill="#00897b" d="m28 47-2 2-2-2 2-1z"/>
  <path fill="#00897b" d="m26 46-2 2-2-2 2-2z"/>
  <path fill="#00897b" d="m28 45-2 2-1-2 1-2zm1 8-1 2-2-2 2-2z"/>
  <path fill="#00897b" d="m29 51-2 2-2-2 2-2z"/>
  <path fill="#00897b" d="m30 50-1 2-2-2 2-2zm-2-2-1 2-2-2 2-1z"/>
  <path fill="#00897b" d="m31 47-2 2-2-2 2-1z"/>
  <path fill="#00897b" d="m32 48-2 2-2-2 2-2z"/>
  <path fill="#004d40" d="m31 46-2 2-2-2 2-1z"/>
  <path fill="#00897b" d="m33 45-2 2-2-2 2-2z"/>
  <path fill="#00897b" d="m31 44-2 1-2-1 2-2z"/>
  <path fill="#004d40" d="m35 43-2 2-2-2 2-1z"/>
  <path fill="#00897b" d="m33 43-1 1-2-1 2-2zm-7 0-1 2-2-2 2-2z"/>
  <path fill="#00897b" d="m29 42-2 2-2-2 2-2z"/>
  <path fill="#00897b" d="m31 41-1 2-2-2 2-2z"/>
  <path fill="#00897b" d="m30 39-2 2-2-2 2-1zm4 1-2 2-1-2 1-2zm-11 0-2 2-2-2 2-1zm-3 13-2 2-2-2 2-2z"/>
  <path fill="#004d40" d="m20 48-2 2-2-2 2-2z"/>
  <path fill="#00897b" d="m19 50-1 1-2-1 2-2zm15-3-2 2-1-2 1-1zm-2 3-2 2-2-2 2-2zm1 6-2 2-2-2 2-1z"/>
  <path fill="#00897b" d="m34 55-1 2-2-2 2-2z"/>
  <path fill="#00897b" d="m32 55-2 1-2-1 2-2z"/>
  <path fill="#00897b" d="m33 53-1 2-2-2 2-2z"/>
  <path fill="#00897b" d="m36 53-2 1-2-1 2-2z"/>
  <path fill="#00897b" d="m35 54-1 1-2-1 2-2zm1-3-1 1-2-1 2-2zm2 2-1 1-2-1 2-2z"/>
  <path fill="#00897b" d="m38 55-2 1-1-1 1-2zm-3 1-2 1-2-1 2-2zm3-5-1 2-2-2 2-2z"/>
  <path fill="#00695c" d="m26 39-1 2-2-2 2-2z"/>
  <path fill="#00897b" d="m28 41-2 1-1-1 1-2z"/>
  <path fill="#00897b" d="m26 41-1 2-2-2 2-2z"/>
</svg>
