<svg xmlns="http://www.w3.org/2000/svg" xml:space="preserve" viewBox="0 0 512 512">
  <path d="M431 343q-1-5-6-7l-86-43q-8-4-14 4l-97 163q-4 8 3 14l40 30a11 11 0 0 0 14-1l143-150q4-4 3-10" style="fill:#d770ad"/>
  <path d="m377 324-2-13-36-18q-8-4-14 4l-97 163q-4 8 3 14l25 19 26-33z" style="opacity:.1"/>
  <path d="m420 356-4-1-87-43q-5-3-6-10 0-9 7-10l47-19h4l32 1q9 2 10 10l8 60a11 11 0 0 1-11 12" style="fill:#ec87c0"/>
  <path d="M416 355a11 11 0 0 0 15-11l-8-60-1-4-51 53z" style="opacity:.1;fill:#fff"/>
  <path d="M60 343q0-5 5-7l87-43q9-4 14 4l97 163q4 8-3 14l-40 30a11 11 0 0 1-14-1L62 353q-3-4-2-10" style="fill:#d770ad"/>
  <path d="m113 324 2-13 37-18q9-4 14 4l97 163q4 8-3 14l-25 19-27-33z" style="opacity:.1"/>
  <path d="M64 354q-5-4-4-10l7-60q2-8 10-10l32-1h5l47 19a11 11 0 0 1 0 20l-86 43a11 11 0 0 1-11-1" style="fill:#ec87c0"/>
  <path d="M75 355a11 11 0 0 1-11-1q-5-4-4-10l7-60 1-4 52 53z" style="opacity:.1;fill:#fff"/>
  <path d="M512 37a11 11 0 1 1-21 0 11 11 0 0 1 21 0" style="fill:#ffce54"/>
  <path d="M469 421a11 11 0 1 1-21 0 11 11 0 0 1 21 0" style="fill:#5d9cec"/>
  <path d="M299 16a11 11 0 1 1-22 0 11 11 0 0 1 22 0" style="fill:#a0d468"/>
  <path d="M85 165a11 11 0 1 1-21 0 11 11 0 0 1 21 0" style="fill:#ac92eb"/>
  <path d="M21 357a11 11 0 1 1-21 0 11 11 0 0 1 21 0" style="fill:#ed5564"/>
  <path d="M32 37V27a11 11 0 1 0-21 0v10a11 11 0 1 0 0 22v10a11 11 0 0 0 21 0V59a11 11 0 1 0 0-22" style="fill:#fc6e51"/>
  <path d="M437 165v-10a11 11 0 0 0-21 0v10a11 11 0 1 0 0 22v10a11 11 0 0 0 21 0v-10a11 11 0 0 0 0-22" style="fill:#48cfad"/>
  <path d="M328 169q-3-3-8-4H171a11 11 0 0 0-11 12l43 320q1 10 10 10h64q9 0 11-10l43-320q0-5-3-8" style="fill:#967adc"/>
  <path d="M328 169q-3-3-8-4H171a11 11 0 0 0-11 12l43 320q1 10 10 10h64q9 0 11-10l43-320q0-5-3-8" style="fill:#967adc"/>
  <path d="M245 165h-74a11 11 0 0 0-11 12l43 320q1 10 10 10h32z" style="opacity:.1"/>
  <path d="M320 187H171a11 11 0 0 1-9-17l43-62 3-3 43-24q7-3 14 3l64 86a11 11 0 0 1-9 17" style="fill:#ac92eb"/>
  <path d="M330 181q2-6-1-11l-64-86-6-4-14 107h75q7-1 10-6" style="opacity:.1;fill:#fff"/>
</svg>
