<svg xmlns="http://www.w3.org/2000/svg" xml:space="preserve" viewBox="0 0 473.7 473.7"><circle cx="236.8" cy="236.8" r="236.8" style="fill:#6bbdc6"/><path d="M23 340a237 237 0 0 0 427 0z" style="fill:#83a34b"/><path d="M96 335h9v15h-9z" style="fill:#d8d8d8"/><path d="M105 335v15h8v-14z" style="fill:#d5d6d4"/><path d="M91 336v14h5v-15z" style="fill:#d2d3d1"/><path d="M98 220v14h12v-14zm2 11v1l-1-1v-8l1-1zm4 0-2 1-1-1v-8l1-1 2 1zm3 0-1 1-1-1v-8l1-1 1 1zm3 0-1 1-1-1v-8l1-1 1 1z" style="fill:#d5d6d4"/><path d="M111 219H97v1z" style="fill:#dddfda"/><path d="m97 220 1 1h12l2-1z" style="fill:#d0d1c5"/><path d="M104 214q-5 0-6 5h12q-1-5-6-5" style="fill:#dddfda"/><path d="M104 207v8h1v-4z" style="fill:#dddfda"/><ellipse cx="104.1" cy="210" rx=".7" ry=".4" style="fill:#dddfda"/><ellipse cx="104.1" cy="211.5" rx=".7" ry=".4" style="fill:#dddfda"/><ellipse cx="104.1" cy="213" rx=".7" ry=".4" style="fill:#dddfda"/><path d="M110 237H98l-3 99h18z" style="fill:#dddfda"/><path d="M113 299H95l-1 1v1h21v-1z" style="fill:#dddfda"/><path d="m94 301 2 3h16l3-3z" style="fill:#d0d1c5"/><path d="M112 267H96l-1 1v1h18v-1z" style="fill:#dddfda"/><path d="m95 269 2 2h14l2-2z" style="fill:#d0d1c5"/><path d="M111 233H97l-1 1v1h16v-1z" style="fill:#dddfda"/><path d="m96 235 2 2h12l2-2z" style="fill:#d0d1c5"/><path d="M371 335h9v15h-9z" style="fill:#d8d8d8"/><path d="M362 336v14h9v-15z" style="fill:#d5d6d4"/><path d="M380 335v15h4v-14z" style="fill:#d2d3d1"/><path d="M365 220v14h12v-14zm3 11-1 1-1-1v-8l1-1 1 1zm3 0-1 1-2-1v-8l2-1 1 1zm4 0-2 1-1-1v-8l1-1 2 1zm2 0-1 1-1-1v-8l1-1 1 1z" style="fill:#d5d6d4"/><path d="M378 219h-14v1z" style="fill:#dddfda"/><path d="m364 220 2 1h11l2-1z" style="fill:#d0d1c5"/><path d="M372 214q-6 0-6 5h12q-1-5-6-5" style="fill:#dddfda"/><path d="m372 207-1 4v4h1v-4z" style="fill:#dddfda"/><ellipse cx="371.5" cy="210" rx=".7" ry=".4" style="fill:#dddfda"/><ellipse cx="371.5" cy="211.5" rx=".7" ry=".4" style="fill:#dddfda"/><ellipse cx="371.5" cy="213" rx=".7" ry=".4" style="fill:#dddfda"/><path d="M377 237h-11l-4 99h19z" style="fill:#dddfda"/><path d="M381 299h-19l-1 1v1h21v-1z" style="fill:#dddfda"/><path d="m361 301 2 3h17l2-3z" style="fill:#d0d1c5"/><path d="M380 267h-17l-1 1v1h19v-1z" style="fill:#dddfda"/><path d="m362 269 2 2h15l2-2z" style="fill:#d0d1c5"/><path d="M378 233h-13l-1 1v1h15v-1z" style="fill:#dddfda"/><path d="m364 235 1 2h13l1-2z" style="fill:#d0d1c5"/><path d="M192 197h91v36h-91z" style="fill:#d3d6d0"/><path d="m238 76-3 23v29h5V99z" style="fill:#d6d6d6"/><ellipse cx="237.6" cy="94.7" rx="4.4" ry="2.6" style="fill:#d6d6d6"/><ellipse cx="237.6" cy="103.8" rx="4.4" ry="2.6" style="fill:#d6d6d6"/><ellipse cx="237.6" cy="112.5" rx="4.4" ry="2.6" style="fill:#d6d6d6"/><circle cx="237.7" cy="179.7" r="49.2" style="fill:#e5e5e5"/><path d="m238 119-22 17s12-5 22-5 21 5 21 5z" style="fill:#d6d6d6"/><path d="M287 179a670 670 0 0 1-99 1q0 8 3 16l47 2 46-2z" style="fill:#ededed"/><path d="M192 215h91v106h-91z" style="fill:#dddfda"/><path d="M203 227h69v94h-69z" style="fill:#e5e5e5"/><path d="M209 234h57v85h-57z" style="fill:#d3d3d3"/><path d="M261 250c-7-6-23-12-23-12s-14 5-23 12c-5 5-6 12-6 12v57h57v-57s1-7-5-12" style="fill:#dddfda"/><path d="m244 265-6-3-7 3-1 3v16h15v-16q1-1-1-3" style="fill:#c6c6c6"/><path d="M209 284h57v4h-57z" style="fill:#d1d3cd"/><path d="M224 288h27v31h-27z" style="fill:#c6c6c6"/><path d="M227 291h22v28h-22z" style="fill:#e5e5e5"/><path d="M230 294h15v25h-15z" style="fill:#d3d3d3"/><path d="m244 300-6-3-7 3-1 3v16h15v-16q1-1-1-3" style="fill:#c6c6c6"/><path d="M189 246q-5 0-5-3v-25q0-3 5-4l3 1v-4h-33v40h33v-35 30zm-22-3q0 2-4 3-3-1-3-3v-24q0-4 3-4t4 4zm13 0q0 3-5 3-6 0-5-3v-25q0-3 5-4c5-1 5 3 5 4zm12-28" style="fill:#b2b2b2"/><path d="M159 211v4l3-1q5 1 5 4v25q0 3-5 3h-3v-30 35h33v-40zm22 32q0 3-5 3t-6-3v-25q1-3 6-4 5 1 5 4zm10 0q0 2-4 3l-3-3v-24q1-4 3-4 3 0 4 4z" style="fill:#b2b2b2"/><path d="M194 206h-38q-3 0-3 2v1h44v-1q0-2-3-2" style="fill:#dddfda"/><path d="m153 209 5 3h34l5-3z" style="fill:#d0d1c5"/><path d="M174 192q-15 1-17 15h35q-1-14-18-15" style="fill:#dddfda"/><path d="m175 172-2 11v13h3v-13z" style="fill:#dddfda"/><ellipse cx="174.6" cy="180.5" rx="2.1" ry="1.3" style="fill:#dddfda"/><ellipse cx="174.6" cy="185" rx="2.1" ry="1.3" style="fill:#dddfda"/><ellipse cx="174.6" cy="189.1" rx="2.1" ry="1.3" style="fill:#dddfda"/><path d="M158 211v40h34v-40zm6 32-3 3-3-3v-24q1-4 3-4t3 4zm10 0q0 3-4 3-3 0-4-3v-25q1-3 4-4 4 1 4 4zm10 0q-1 3-4 3t-4-3v-25q0-3 4-4 4 1 4 4zm7 0-2 3q-3-1-3-3v-24q0-4 3-4l2 4zm-61-39v4h3v-4zm0 3v-2zm1 0v-2h1zm1 0v-2h1zm1 0v-2h1z" style="fill:#d5d6d4"/><path d="M133 204h-4z" style="fill:#dddfda"/><path d="M129 204h3z" style="fill:#d0d1c5"/><path d="m131 203-1 1h3zm0-2v2-1z" style="fill:#dddfda"/><ellipse cx="131.2" cy="201.7" rx=".2" ry=".1" style="fill:#dddfda"/><ellipse cx="131.2" cy="202" rx=".2" ry=".1" style="fill:#dddfda"/><ellipse cx="131.2" cy="202.4" rx=".2" ry=".1" style="fill:#dddfda"/><path d="M133 208h-3l-1 25h4zm0-1h-4v1z" style="fill:#dddfda"/><path d="M129 208h3z" style="fill:#d0d1c5"/><path d="M148 211v4h3v-4zm1 3v-2h1zm0 0v-2zm1 0v-2zm1 0v-2h1z" style="fill:#d5d6d4"/><path d="M151 211h-3z" style="fill:#dddfda"/><path d="M148 211h3v-1z" style="fill:#d0d1c5"/><path d="m149 210-1 1h3zm0-2v2h1v-1z" style="fill:#dddfda"/><ellipse cx="149.5" cy="208.9" rx=".2" ry=".1" style="fill:#dddfda"/><ellipse cx="149.5" cy="209.2" rx=".2" ry=".1" style="fill:#dddfda"/><ellipse cx="149.5" cy="209.6" rx=".2" ry=".1" style="fill:#dddfda"/><path d="M151 216h-3l-1 24h5zm0-1h-3z" style="fill:#dddfda"/><path d="M148 215h3v-1z" style="fill:#d0d1c5"/><path d="M125 214v4h3v-4zm0 3v-2zm1 0v-2h1zm1 0v-2h1zm0 0v-2z" style="fill:#d5d6d4"/><path d="M128 214h-4z" style="fill:#dddfda"/><path d="M124 214h3z" style="fill:#d0d1c5"/><path d="m126 213-1 1h3zm0-2v2-1z" style="fill:#dddfda"/><ellipse cx="126" cy="211.8" rx=".2" ry=".1" style="fill:#dddfda"/><ellipse cx="126" cy="212.2" rx=".2" ry=".1" style="fill:#dddfda"/><ellipse cx="126" cy="212.5" rx=".2" ry=".1" style="fill:#dddfda"/><path d="M127 218h-2l-1 25h4zm1-1h-4v1z" style="fill:#dddfda"/><path d="M124 218h3z" style="fill:#d0d1c5"/><path d="M141 220v4h3v-4zm1 3v-2h1zm0 0v-2zm1 0v-2zm1 0v-2h1z" style="fill:#d5d6d4"/><path d="M144 220h-3z" style="fill:#dddfda"/><path d="M141 220h3v-1z" style="fill:#d0d1c5"/><path d="m142 219-1 1h3zm0-2v2h1v-1zm2 8h-3l-1 24h5zm0-1h-3z" style="fill:#dddfda"/><path d="M141 224h3v-1z" style="fill:#d0d1c5"/><path d="M149 228h43v88h-43zm-25 5v84h25v-89z" style="fill:#cbccca"/><path d="M149 234h43v87h-43zm-25 4v84h25v-89z" style="fill:#dddfda"/><path d="M157 284h28v35h-28z" style="fill:#c6c6c6"/><path d="M160 285h22v32h-22z" style="fill:#e5e5e5"/><path d="M161 288h20v27h-20z" style="fill:#d3d3d3"/><path d="m179 292-8-4-7 4-3 4v19h20v-19zm-22-51h28v36h-28z" style="fill:#c6c6c6"/><path d="M160 243h22v32h-22z" style="fill:#e5e5e5"/><path d="M161 245h20v28h-20z" style="fill:#d3d3d3"/><path d="m179 250-8-4-7 4-3 4v19h20v-19zm-53 37v36l19-3v-36z" style="fill:#c6c6c6"/><path d="M128 289v32l16-2v-33z" style="fill:#e5e5e5"/><path d="M129 291v28l13-2v-28z" style="fill:#d3d3d3"/><path d="m141 294-5-4-5 5-2 4v20l13-2v-20q1-1-1-3m-15-49v36l19-3v-35z" style="fill:#c6c6c6"/><path d="M128 247v32l16-2v-32z" style="fill:#e5e5e5"/><path d="M129 249v28l13-2v-28z" style="fill:#d3d3d3"/><path d="M141 252q-3-3-5-3t-5 5q-3 3-2 4v19l13-2v-19q1-1-1-4" style="fill:#c6c6c6"/><path d="M283 211v4l3-1q5 1 5 4v25q0 3-5 3h-3v-30 35h33v-40zm22 32q0 3-5 3t-5-3v-25q0-3 5-4 5 1 5 4zm10 0q0 2-3 3l-4-3v-24q1-4 4-4t3 4z" style="fill:#b2b2b2"/><path d="M283 211v40h33v-36 31h-3q-4 0-5-3v-25q1-3 5-4l3 1v-4zm8 32q0 2-3 3l-4-3v-24q1-4 4-4t3 4zm14 0q-1 3-6 3t-5-3v-25q0-3 5-4 5 1 6 4z" style="fill:#b2b2b2"/><path d="M319 206h-38l-2 2v1h43v-1q0-2-3-2" style="fill:#dddfda"/><path d="m279 209 4 3h34l5-3z" style="fill:#d0d1c5"/><path d="M301 192q-16 1-18 15h35q-1-14-17-15" style="fill:#dddfda"/><path d="m300 172-1 11v13h3v-13z" style="fill:#dddfda"/><ellipse cx="300.4" cy="180.5" rx="2.1" ry="1.3" style="fill:#dddfda"/><ellipse cx="300.4" cy="185" rx="2.1" ry="1.3" style="fill:#dddfda"/><ellipse cx="300.4" cy="189.1" rx="2.1" ry="1.3" style="fill:#dddfda"/><path d="M283 211v40h35v-40zm6 32q0 2-3 3l-2-3v-24l2-4q3 0 3 4zm10 0q0 3-4 3t-4-3v-25q1-3 4-4 3 1 4 4zm10 0q0 3-4 3-3 0-3-3v-25q0-3 3-4 4 1 4 4zm8 0-3 3-2-3v-24l2-4q2 0 3 4zm25-39v4h3v-4zm1 3v-2zm1 0v-2h1zm1 0v-2h1zm0 0v-2z" style="fill:#d5d6d4"/><path d="M346 204h-4z" style="fill:#dddfda"/><path d="M342 204h4z" style="fill:#d0d1c5"/><path d="m344 203-2 1h3zm0-2v2-1z" style="fill:#dddfda"/><ellipse cx="343.9" cy="201.7" rx=".2" ry=".1" style="fill:#dddfda"/><ellipse cx="343.9" cy="202" rx=".2" ry=".1" style="fill:#dddfda"/><ellipse cx="343.9" cy="202.4" rx=".2" ry=".1" style="fill:#dddfda"/><path d="M345 208h-2l-1 25h4zm1-1h-4v1z" style="fill:#dddfda"/><path d="M342 208h4z" style="fill:#d0d1c5"/><path d="M324 211v4h3v-4zm1 3v-2h1zm0 0v-2zm1 0v-2zm1 0v-2z" style="fill:#d5d6d4"/><path d="M327 211h-3z" style="fill:#dddfda"/><path d="M324 211h3v-1z" style="fill:#d0d1c5"/><path d="m326 210-2 1h3zm0-2v2-1z" style="fill:#dddfda"/><ellipse cx="325.6" cy="208.9" rx=".2" ry=".1" style="fill:#dddfda"/><ellipse cx="325.6" cy="209.2" rx=".2" ry=".1" style="fill:#dddfda"/><ellipse cx="325.6" cy="209.6" rx=".2" ry=".1" style="fill:#dddfda"/><path d="M327 216h-3l-1 24h5zm0-1h-3z" style="fill:#dddfda"/><path d="M324 215h3l1-1z" style="fill:#d0d1c5"/><path d="M348 214v4h2v-4zm0 3v-2zm1 0v-2h1q1 0 0 0zm1 0v-2h1zm0 0v-2z" style="fill:#d5d6d4"/><path d="M351 214h-4z" style="fill:#dddfda"/><path d="M347 214h3z" style="fill:#d0d1c5"/><path d="m349 213-1 1h3zm0-2v2-1z" style="fill:#dddfda"/><ellipse cx="349.1" cy="211.8" rx=".2" ry=".1" style="fill:#dddfda"/><ellipse cx="349.1" cy="212.2" rx=".2" ry=".1" style="fill:#dddfda"/><ellipse cx="349.1" cy="212.5" rx=".2" ry=".1" style="fill:#dddfda"/><path d="M350 218h-2l-1 25h4zm1-1h-4v1z" style="fill:#dddfda"/><path d="M347 218h3z" style="fill:#d0d1c5"/><path d="M331 220v4h3v-4zm1 3v-2h1zm1 0v-3h1zm0 0v-2zm1 0v-2z" style="fill:#d5d6d4"/><path d="M334 220h-3z" style="fill:#dddfda"/><path d="M331 220h3v-1z" style="fill:#d0d1c5"/><path d="m333 219-2 1h3zm0-2v2-1z" style="fill:#dddfda"/><ellipse cx="332.6" cy="217.9" rx=".2" ry=".1" style="fill:#dddfda"/><ellipse cx="332.6" cy="218.3" rx=".2" ry=".1" style="fill:#dddfda"/><ellipse cx="332.6" cy="218.7" rx=".2" ry=".1" style="fill:#dddfda"/><path d="M334 225h-3l-1 24h5zm0-1h-3z" style="fill:#dddfda"/><path d="M331 224h3l1-1z" style="fill:#d0d1c5"/><path d="M283 228h43v88h-43zm43 0v89h25v-84z" style="fill:#cbccca"/><path d="M283 234h43v87h-43zm43-1v89h25v-84z" style="fill:#dddfda"/><path d="M291 284h27v35h-27z" style="fill:#c6c6c6"/><path d="M293 285h23v32h-23z" style="fill:#e5e5e5"/><path d="M295 288h19v27h-19z" style="fill:#d3d3d3"/><path d="m312 292-8-4-8 4-1 4v19h19v-19zm-21-51h27v36h-27z" style="fill:#c6c6c6"/><path d="M293 243h23v32h-23z" style="fill:#e5e5e5"/><path d="M295 245h19v28h-19z" style="fill:#d3d3d3"/><path d="m312 250-8-4-8 4-1 4v19h19v-19zm18 34v36l19 3v-36z" style="fill:#c6c6c6"/><path d="M331 286v33l16 2v-32z" style="fill:#e5e5e5"/><path d="M333 289v28l13 2v-28z" style="fill:#d3d3d3"/><path d="m344 295-5-5-5 4-1 3v20l13 2v-20zm-14-52v35l19 3v-36z" style="fill:#c6c6c6"/><path d="M331 245v32l16 2v-32z" style="fill:#e5e5e5"/><path d="M333 247v28l13 2v-28z" style="fill:#d3d3d3"/><path d="m344 254-5-5q-2 0-5 3l-1 4v19l13 2v-19q1-1-2-4" style="fill:#c6c6c6"/><path d="M48 321h376v29H48z" style="fill:#d5d6d4"/><path d="M48 321h376v8H48z" style="fill:#c9c9c9"/><path d="M53 145v21h18v-21zm3 17-1 2-2-2v-13l2-2 1 2zm5 0-2 2-2-2v-13l2-2 2 2zm6 0-2 2-2-2v-13l2-2 2 2zm4 0-1 2-2-2v-13l2-2 1 2z" style="fill:#d5d6d4"/><path d="M72 143H52l-1 1h23z" style="fill:#dddfda"/><path d="m51 144 2 2h18l3-2z" style="fill:#d0d1c5"/><path d="M62 135q-9 1-10 8h19q-1-7-9-8" style="fill:#dddfda"/><path d="m62 124-1 6v7h2v-7z" style="fill:#dddfda"/><path d="m62 128-1 1 1 1 1-1zm0 3h-1l1 1 1-1zm0 2-1 1h2zm9 38H53l-5 154h28z" style="fill:#dddfda"/><path d="M76 267H47q-2 0-2 3v1h33v-1q0-3-2-3" style="fill:#dddfda"/><path d="m45 271 4 4h26l3-4z" style="fill:#d0d1c5"/><path d="M75 217H49l-1 3v1h28v-1z" style="fill:#dddfda"/><path d="m48 221 3 4h22l3-4z" style="fill:#d0d1c5"/><path d="M72 165H51l-1 2v1h24v-1z" style="fill:#dddfda"/><path d="m50 168 2 3h19l3-3z" style="fill:#d0d1c5"/><path d="M54 324h11v23H54z" style="fill:#d8d8d8"/><path d="M65 324v23h11v-22z" style="fill:#d5d6d4"/><path d="M48 325v22h6v-23z" style="fill:#d2d3d1"/><path d="M400 145v21h19v-21zm3 17-1 2-1-2v-13l1-2 1 2zm6 0-2 2-2-2v-13l2-2 2 2zm5 0-2 2-2-2v-13l2-2 2 2zm4 0-1 2-2-2v-13l2-2 1 2z" style="fill:#d5d6d4"/><path d="M420 143h-21l-1 1h23z" style="fill:#dddfda"/><path d="m398 144 2 2h19l2-2z" style="fill:#d0d1c5"/><path d="M410 135q-9 1-10 8h19q-1-7-9-8" style="fill:#dddfda"/><path d="m410 124-1 6v7h1v-7z" style="fill:#dddfda"/><ellipse cx="409.6" cy="129.1" rx="1.1" ry=".7" style="fill:#dddfda"/><ellipse cx="409.6" cy="131.4" rx="1.1" ry=".7" style="fill:#dddfda"/><ellipse cx="409.6" cy="133.6" rx="1.1" ry=".7" style="fill:#dddfda"/><path d="M419 171h-18l-6 154h29z" style="fill:#dddfda"/><path d="M424 267h-29q-2 0-2 3v1h33v-1q0-3-2-3" style="fill:#dddfda"/><path d="m393 271 4 4h26l3-4z" style="fill:#d0d1c5"/><path d="M422 217h-25q-2 0-2 3v1h29v-1q0-3-2-3" style="fill:#dddfda"/><path d="m395 221 3 4h23l3-4z" style="fill:#d0d1c5"/><path d="M420 165h-21l-1 2v1h24v-1z" style="fill:#dddfda"/><path d="m398 168 2 3h19l3-3z" style="fill:#d0d1c5"/><path d="M406 324h12v23h-12z" style="fill:#d8d8d8"/><path d="M395 325v22h11v-23z" style="fill:#d5d6d4"/><path d="M418 324v23h6v-22z" style="fill:#d2d3d1"/></svg>