<svg xmlns="http://www.w3.org/2000/svg" width="800" height="800" aria-hidden="true" class="iconify iconify--noto" viewBox="0 0 128 128">
  <path fill="#b9ce46" d="M65 93 5 112c0 2 24 12 64 12 39-1 54-11 54-12z"/>
  <path fill="#9ea2a3" d="m62 42-4-5-9 9-4 5-6 26-11 12-3-1-19 22-1 2 4 1 7-1h7l3-1 15-9 13-3 12 5 23 1 13-19-28-36z"/>
  <path fill="#717a7c" d="m29 98-1-2v-7l8 5 8 5 6-1h5l-1 2-13 4-16 7 4-5z"/>
  <path fill="#717a7c" d="m81 103-50 8-2 3 13 3 27 1 29-2 15-1 8-4-9-15-5-9-3-2s-2-6-5-9l-7-10-3-3 2 24-5 9z"/>
  <path fill="#717a7c" d="m63 28-1 19 11 7 4 10v3l7 5 4-1 1-5-10-16-9-14-5-8z"/>
  <path fill="silver" d="m68 65 6-10c1-1-5-10-6-13l-4-10-1-4-3 4-4 7 4 27-5 12v6q1 2 4 1v-3l9-13zm-18 1-2-8-2-8-6 12-11 24-2 3 17 10 6-1-5-11-2-5 4-8zM25 88v11l-7 8-12 5H5s-2-1 3-5l14-16z"/>
  <path fill="#367c2d" d="m40 91-2 3-3 9-1 5h5l4-4-1-7zm67 9-3 9-1 7c1 1 8 1 8-1l-1-7zm12-9-3 10c-1 2-3 12-2 13h6l3-2-1-10z"/>
  <path fill="silver" d="m31 111 12 2h13l20-3 5-7h-9l-9-1 7-6 7-2 13-7c1 0 6 3 7 2l-4-12-2-9q-1-5-3-5l-3 7-2 6-8 6-5 3-5 2-4 5-6 6-2 2-10 4z"/>
  <path fill="#367c2d" d="m77 106-3 7-1 6h9l-3-7z"/>
  <path fill="#fff" d="M112 52v3h3l-1-3z"/>
  <path fill="#fff" d="M112 65v3l3-1v-2z" opacity=".5"/>
  <path fill="#fff" d="m86 32 1 2 2-1-1-2z" opacity=".6"/>
  <path fill="#fff" d="m95 46 1-3 1 3 3 1-2 2 1 3-3-2-3 2 1-3-2-2zm-61-7 1-3 2 3h3l-2 2v3l-3-1-3 2 1-4-3-2z"/>
  <path fill="#fff" d="m12 46-2 2 2 1 1-1z" opacity=".5"/>
  <path fill="#fff" d="M18 61q1 2 3 2 3 0 1-4-3-1-4 2M9 75l2-1-2-2z"/>
  <path fill="#367c2d" d="m46 93-2 5-2 6 5-1 2-1-1-6z"/>
  <path fill="#fff" d="M36 20v3h2v-3z" opacity=".5"/>
</svg>
