<svg xmlns="http://www.w3.org/2000/svg" width="800" height="800" aria-hidden="true" class="iconify iconify--noto" viewBox="0 0 128 128"><radialGradient id="a" cx="48.4" cy="86.8" r="81" gradientUnits="userSpaceOnUse"><stop offset=".3" stop-color="#afe4fe"/><stop offset=".7" stop-color="#84d4f9"/><stop offset="1" stop-color="#67c9f6"/></radialGradient><path fill="url(#a)" d="M117 124H11q-6 0-7-7V11q1-6 7-7h106q6 1 7 7v106q0 6-7 7"/><path fill="#b4d218" d="M124 76v41q0 7-7 8H11q-6-1-7-8V76l64-2z"/><path fill="#00c1ed" d="M106 124H11q-6 0-7-6l10-4c5-1 19-5 19-12-1-6-14-6-13-13q2-6 12-9c9-3 19-4 19-4s-4 5-2 10q2 8 20 11c18 3 24 5 31 14s6 13 6 13"/><radialGradient id="b" cx="55.3" cy="66.7" r="114.3" gradientUnits="userSpaceOnUse"><stop offset=".3" stop-color="#8cdbfc"/><stop offset=".4" stop-color="#54d1f5"/><stop offset=".5" stop-color="#23c7ee"/><stop offset=".6" stop-color="#10c4ec"/></radialGradient><path fill="url(#b)" d="M8 124h92s-2-6-12-14q-9-7-20-8c-13-3-21-5-23-14q-1-8 0-8s-20 4-20 9 13 4 13 13-12 13-17 14q-13 7-13 8"/><path fill="#79a5ab" d="M4 75h49l-5-8-7-5-17-24c-3-4-7-10-11-10l-9 3z"/><path fill="#e0e0e0" d="M4 26h5q6 1 7 3c1 2-4 0-7 3q-5 5-5 6z"/><path fill="#86b4bb" d="M64 43 51 71l2 4 18-2 12-38-9-2z"/><path fill="#3e727b" d="m75 49-4 9-1 11 34 3 14-34-15-22-12 4-10 12z"/><path fill="#79a5ab" d="m124 21-8-6-15-2-10 4-9 10-5 12-3 10s2 2 3-2q0-2 5-14 8-17 18-15 7 4 8 13l2 15-8 4-4 13v4l-1 5 20 1 7-5z"/><path fill="#e0e0df" d="m51 68 3 1 4-9 3-6 3-2 5-11 5-6h3l-3 10-3 13 3-2 1-4 3-14 6-12q4-6 8-8 4-3 13-4l14 2s-6-4-15-4-14 3-19 8-7 13-7 13-2-2-5-1-7 2-10 7l-8 18zM112 51s-5-1-7 1q-3 1-5 9l-2 5 1-13q1-5 7-8 7 0 6 6"/><path fill="#79a5ab" d="M94 27q-3 0-2 5v7l-4 8-3 8q-1 4 1 5c1 1 3-6 4-11l5-9v-8zM86 31l-1 4v4l-2 5q0 3 2 1l3-6v-4c0-1 0-5-2-4"/><path fill="#ace4fe" d="m14 41 1 3 1 14v14l5-1V54q-1-8-3-10z"/><path fill="#fcfdfe" d="M17 51q1-1 1 4l-1 5-1-5zM19 52v6l1 5v-5zM16 72l2-2h2q0-1 4-2c3 0 4 4 4 4l-12 2z"/><path fill="#0a7e1d" d="M17 76h71l-9-17-6 9-6-10-6 13-3-4-3 5-3-9-7 10-3-1-6 2-9-2-15 3z"/><path fill="#02ab47" d="m50 62 2 2-4 10-3-1zM55 72l1 2 3-6-1-1zM67 58l-6 13 2 2 5-14z"/><path fill="#0a7e1d" d="M83 79v1l15 1 26-1V68l-8-17-7 15-3-5-8 9-6-13z"/><path fill="#02ab47" d="m91 54-7 16-4 10h4l6-15 3-7zM104 60l2 2-6 11-2-3z"/><path fill="#0a7e1d" d="M4 113s4 0 7-2q6-5 5-6-1 0 5 2 7-2 7-5l-5-5-5-11 1-3-8-10-3-18-2-1-2 4z"/><path fill="#00aa48" d="M12 87q-3 1-4-8V59l-2-5h1l7 12 9 17q2 5 0 5l-5-2 5 9 4 6q1 2-3 1c-4-1-7-8-7-10l-1-4 1-2-2-3-1-3s0 8-2 7"/><path fill="#0a7e1d" d="m117 77-19 6q-1 2 1 3l4 1v5l-8 4q-1 2 2 4h4s-9 7-8 9q0 4 6 4 5-1 7 1c2 1 2 5 8 4q5-1 7-3l3-1V80z"/><path fill="#02ab47" d="M115 63q-2 1-7 10-9 12-10 10c-1-2 1 1 2 1l5-1q2 3 4 4 5-2 8-3 3 0 5 2l2-1v-7l-5-8q-1-7-4-7M109 90l10-2c4 0 4 5 3 6q0 4-4 5-4-1-4-2l-5 2q-3-1-5-3c-2-2-4 2-6 2q-4-1-3-2l1-2 5-4 2-3q1 2 6 3M105 109q3 2 6 5c4 1 9-7 7-11-3-4-7 1-10 0q-4-2-7-3c-2 0-8 6-8 9q0 2 5 2z"/><path fill="#fffffe" d="M20 16q1 5 15 5 15 1 15-5c0-6-10-4-16-4-5 0-14 1-14 4M42 30q2 3 10 2 10 1 12-2c0-4-8-3-11-3s-11 0-11 3"/></svg>