<svg xmlns="http://www.w3.org/2000/svg" width="800" height="800" class="icon" viewBox="0 0 1024 1024"><path fill="#fff9bb" d="M0 512a512 512 0 1 0 1024 0A512 512 0 1 0 0 512"/><path fill="#ffea96" d="M1019 586c-60-13-127-119-171-98-45 22-85 57-106 57-36 0-295-136-337-140-32-3-197 115-229 115-21 0-75-19-92-19-18 0-47 28-83 33q4 89 36 168c95 19 258 49 300 48 59-2 323 52 483 18l154-34q33-70 45-148"/><path fill="#d6eb76" d="m876 658-4 1a23 23 0 0 0-30-8 28 28 0 0 0-42 5l-5-1h-1a23 23 0 0 0-35 4l-4-1a14 14 0 0 0-14 14h149a14 14 0 0 0-14-14"/><path fill="#d6c8a9" d="M131 603h244v69H131z"/><path fill="#63a0b5" d="M131 623h128v31H131z"/><path fill="#fffce5" d="M720 672s-48-168-48-320H496c0 152-48 320-48 320"/><path fill="#e9dcb3" d="M448 672h92c9-55 20-272 20-320h-64c0 152-48 320-48 320"/><path fill="#ff8562" d="M584 512a24 24 0 1 1 0-48 24 24 0 0 1 0 48m-90-107h180l-1-24H495z"/><path fill="#d8c34a" d="M26 672a512 512 0 0 0 972 0z"/><path fill="#fff" d="M496 672s-48-168-48-320H272c0 152-48 320-48 320"/><path fill="#e9dcb3" d="M224 672h92c9-55 20-272 20-320h-64c0 152-48 320-48 320"/><path fill="#ff8562" d="M360 512a24 24 0 1 1 0-48 24 24 0 0 1 0 48m-90-107h180l-1-24H271z"/><path fill="#d6c8a9" d="M524 603h244v69H524z"/><path fill="#63a0b5" d="M541 623h227v31H541z"/><path fill="#69be5d" d="m798 651-6 1a35 35 0 0 0-58 0l-6-1c-12 0-22 9-22 21h114c0-12-10-21-22-21"/><path fill="#d6eb76" d="m969 659-4 1a21 21 0 0 0-35 0l-4-1a13 13 0 0 0-12 13h67a13 13 0 0 0-12-13m-858-2-4 1a24 24 0 0 0-40 0l-5-1a15 15 0 0 0-14 15h78a15 15 0 0 0-15-15"/><path fill="#69be5d" d="m316 651-6 1a35 35 0 0 0-45-12 43 43 0 0 0-64 7l-8-1h-1a35 35 0 0 0-54 6l-6-1q-19 2-21 21h226q-2-20-21-21"/><path fill="#d0b459" d="M150 874a510 510 0 0 0 684 35c-177-21-442-49-684-35"/><path fill="#d0d75b" d="M927 812q46-63 71-140H26q28 86 84 156c445-69 634-47 817-16"/><path fill="#d6eb76" d="M50 733c286-47 662-30 921 5q16-31 27-66H26a498 498 0 0 0 24 61"/><path fill="#d8c34a" d="M469 974a13 13 0 1 0 27 0 13 13 0 1 0-27 0M297 928a13 13 0 1 0 26 0 13 13 0 1 0-26 0"/><path fill="#d0d75b" d="M353 835a13 13 0 1 0 27 0 13 13 0 1 0-27 0"/><path fill="#d6eb76" d="M176 768a9 9 0 1 0 17 0 9 9 0 1 0-17 0"/><path fill="#d8c34a" d="M256 747a9 9 0 1 0 17 0 9 9 0 1 0-17 0"/><path fill="#d6eb76" d="M380 768a9 9 0 1 0 17 0 9 9 0 1 0-17 0"/><path fill="#d8c34a" d="M492 735a9 9 0 1 0 17 0 9 9 0 1 0-17 0M605 759a9 9 0 1 0 17 0 9 9 0 1 0-17 0"/><path fill="#d6eb76" d="M720 743a9 9 0 1 0 17 0 9 9 0 1 0-17 0"/><path fill="#d8c34a" d="M839 768a9 9 0 1 0 18 0 9 9 0 1 0-18 0"/><path fill="#d0b459" d="M469 828a13 13 0 1 0 27 0 13 13 0 1 0-27 0"/><path fill="#d0d75b" d="M736 870a13 13 0 1 0 27 0 13 13 0 1 0-27 0M579 848a13 13 0 1 0 26 0 13 13 0 1 0-26 0"/><path fill="#d0b459" d="M660 835a13 13 0 1 0 27 0 13 13 0 1 0-27 0"/><path fill="#d0d75b" d="M392 920a13 13 0 1 0 27 0 13 13 0 1 0-27 0M584 947a13 13 0 1 0 27 0 13 13 0 1 0-27 0"/><path fill="#ffeb97" d="m806 264-13 2a70 70 0 0 0-114 0l-13-2c-23 0-42 19-42 42h223c0-23-18-42-41-42"/><path fill="#fff1a9" d="m858 389-7 1a38 38 0 0 0-63 0l-6-1q-21 2-23 23h122c0-13-11-23-23-23"/><path fill="#ffeb97" d="m472 226-8 1a46 46 0 0 0-76 0l-8-1c-16 0-28 12-28 28h148c0-16-12-28-28-28"/><path fill="#fff1a9" d="M646 175a33 33 0 0 0-41-32 47 47 0 0 0-81 32zM222 373a30 30 0 0 0-37-29 42 42 0 0 0-74 29z"/><path fill="#ffeb97" d="M686 280a25 25 0 0 0-31-24 36 36 0 0 0-62 24z"/><path fill="#fff1a9" d="M556 147a33 33 0 0 0-41-32 47 47 0 0 0-82 32z"/><path fill="#ffeb97" d="M380 235a39 39 0 0 0-49-38 56 56 0 0 0-97 38z"/></svg>