<svg xmlns="http://www.w3.org/2000/svg" width="800" height="800" aria-hidden="true" class="iconify iconify--gis" viewBox="0 0 100 100"><path d="M50 0a50 50 0 1 0 50 50c0-28-22-50-50-50m0 3 15 2v1c3-1 4 5 1 2-3 0-3-4-6-2 1 1-2 3 2 3 1-3 0 2 3 1q-2 0 1 2c4 3-1 1-3 2q1 4 4 6-1 3-4 6l-1 1c0 2-4 6-1 6q-2 1 0 4-2 6 2 8 4 6 10 6c4 2 7-5 9-1q5 1 3 6 3 7 1 12c-3 5-1 11-4 16h1Q70 97 50 97a47 47 0 0 1-24-7l1-3q3-1 4-6 6-1 7-7c-2-5 4-6 4-11q-4-4-11-5-4-1-6-6c-1-4-7-3-8-7 1-3 0-1-3-2h-2q0-3-2-1c-1-1-4 5-5 1v-8l1-2 3-7v4s3-3 1 1c1-3 0 1 1 1 1 3-4-3-4 1q1 0 3 2c-2 3 3 1 5 2 2-2-2-1-2-2q-3-1-1-3c-1-1 0-5-2-4q4-7 10-11 4-3 9-4-3-1 0-3c5-1-1 1 1 2 4 1 2-2 4-3V6l6-2q0 2 2 1l5-2zm24 11q1 2 3 4-2-4 1-1c4 1-1 1 1 2 3 4 1-4 3 0q3 3 5 2l2 3c-1 0-5-3-4 0 0 1-5-2-6-4-2-3-7 0-11 0 4 0 3-5 5-5zM59 26l2 1v-1zM17 36q0 3-1 7c2-1 1-7 1-7M4 42l1 5c1-3 1 2 1 4q-2 5 0 12l7 10 5 11A47 47 0 0 1 4 42" style="fill:#0f6e22"/><path d="M58 11H42l-13 5c-7 3-14 8-12 17l3 7q7 9 15 14 6 3 9 7v4q0 8-5 15c-1 2-5 6-1 9q6 3 14 3h6q10-2 17-8 4-6 5-13l1-7v-3q-3-4-8-5-2-2-5-3-8-4-12-11c-4-8 0-14 2-21q3-6 0-10" style="stroke:#000;fill:#1d7cda"/></svg>