<svg xmlns="http://www.w3.org/2000/svg" xml:space="preserve" width="800" height="800" viewBox="0 0 50 50"><circle cx="25" cy="25" r="23.3" fill="#e7e3e6"/><path fill="#d2d2d2" d="M25 49a24 24 0 1 1 0-48 24 24 0 0 1 0 48m0-47a23 23 0 1 0 0 46 23 23 0 0 0 0-46"/><path fill="#d2d2d2" d="M25 49c-8 0-14-11-14-24S17 1 25 1s14 11 14 24-6 24-14 24m0-47c-7 0-13 11-13 23s6 23 13 23 13-11 13-23S32 2 25 2"/><path fill="#d2d2d2" d="M24 2h2v46h-2z"/><path fill="#d2d2d2" d="M25 39C12 39 1 33 1 25s11-14 24-14 24 6 24 14-11 14-24 14m0-27C13 12 2 18 2 25s11 13 23 13 23-6 23-13-11-13-23-13"/><path fill="#d2d2d2" d="M2 24h46v2H2z"/><path fill="#ffc966" d="M48 15c0 7-6 12-6 12s-7-5-7-12a6 6 0 0 1 13 0"/><circle cx="41.8" cy="15.4" r="3.8" fill="#fff"/><path fill="#53b1e2" d="M15 10c0 7-7 12-7 12s-6-5-6-12a6 6 0 0 1 13 0"/><circle cx="8.3" cy="10" r="3.8" fill="#fff"/><path fill="#ec6e62" d="M28 34c0 7-6 12-6 12s-7-5-7-12a6 6 0 0 1 13 0"/><circle cx="21.8" cy="34" r="3.8" fill="#fff"/></svg>