<svg xmlns="http://www.w3.org/2000/svg" width="500" height="500"><defs><linearGradient id="a" x1="0%" x2="100%" y1="0%" y2="100%"><stop offset="0%" stop-color="rgba(55, 125, 5, 0.7)"/><stop offset="50%" stop-color="rgba(55, 125, 5, 0.2)"/><stop offset="100%" stop-color="rgba(55, 125, 5, 0.05)"/></linearGradient><filter id="b" width="140%" height="140%" x="-20%" y="-20%"><feDropShadow dx="0" dy="8" flood-color="#000" flood-opacity=".1" stdDeviation="10"/></filter></defs><path fill="url(#a)" stroke="rgba(255, 255, 255, 0.6)" stroke-width="2" d="m358 268 2 4 5 1 5 2 3-2-3-3-1-5 6-4 3 3 2-6-3-3 13 8-1 3 7-2 1-4 6-3 3-4 6 4-2 8v8l-2 6 4 4 4-9 12 1 4 8-1 6 5 4 11 11 1 4-6 3 6 8-9 3-5 4 3 4 4-3 10-3 2-3 12 2 7-1 2-2 6 1-3 5-5 2-2 6-4-1-5 2-4 6h-5l-10 7h-6l-3 2-5 5-8 3-7 5-5 2-2 3-4 4-3 3-4-1-5 4-3 9 1 7 4 6 4 3 5 2 5-1 5 3 7-3 7 1 1-3 4-3 3 1 2 10-1 5-4 2-2-1h-5l-5 3-5-1-6 2-1 4 5 5-8 3 3 3 5-1 4 3 2 8-5 5-6-5-2 1 1 5v4l1 5 3 3-2 4-4 1-6-4-2-4-4 3h-3l-10-2-6 2-5 1 1 5-5 2-5 8-8 2-5 6-6-2-1-3-5-4 3-5 10 3 7-5-5-4 3-6-4-8 3-3 6 1 1-5-5-7-2-5-9 4-3-1-5 1-15-3 8-11 1-3-8-1-4 3v5l-4 2-4-1-3-4-4 2 1 5 7 2v4l-5 3-4-5-2 3 1 4-5 6 6 1 2 2-4 4-1 5h6l2 2-2 2 5 7-3 9 2 5-1 6-4 6h-4l-11 6-2 6 11 5-12 7-6-1-4 2-4-6h-6l1-5-9-3-1-2-3 2-3-5-4-1h-7l1-9-4-2-3 3-2-5-6-6 1-5 2-1-1-6-4-1-4 3-2-4-4-3-3-3 4-9-4-2 1-5-5 1-2 6h-12l-3-5-8-2-1 4-8-7-1-4-9 1-5-5-8 2h-6l-7 2-3-2-7-1-5 3-5 1-5-2-4-1-9-14-3-11-7-7-4-6v-15l-3-2-4 2h-8l-6-2-9-11-1-8 3-4 2-5 1-6-1-10-6-2-9 1-5-1-4-3-11-5-1-3 2-10 3-10 15-11 4-5 4-3 6-13 5-5 7-6 8-1 4 1 4 5 1 5 4 5 7 1 16-7 9-2h15l11-4v2l3-11 3-4 8-6 4-4 4-14 6-6 13-6 4-3 11-4 3-7 4-4 11-18 6-19 10-4 11-3 9-6v4l-4 3v4l21 1 8 1h4l2 4-4 3v3h7l-2 10 2 2-2 3 1 5h10l3-2 4 2 2 5 4-1 2 3 8-1 6-2 3 2-1 10h3l4 5-2 2 2 5 2 12h3l3 4 12 7 8 9-3 5 1 4-2 6z" filter="url(#b)"/></svg>