<svg xmlns="http://www.w3.org/2000/svg" xml:space="preserve" viewBox="0 0 474.1 474.1"><circle cx="237.1" cy="237" r="237" style="fill:#a0d2dc"/><path d="M458 322A236 236 0 0 0 237 0 237 237 0 0 0 13 314c59-32 134-47 215-47 88 0 168 18 230 55" style="fill:#a0d2dc"/><path d="M237 474c101 0 187-63 221-152-62-37-142-55-230-55-81 0-156 15-215 47 32 93 120 160 224 160" style="fill:#b1c635"/><path d="m249 268-1-22q-1-14-9-15h-2v37zM237 268l1 206 24-1-13-205z" style="fill:#efefef"/><path d="M237 268v-37h-1q-8 2-9 15l-1 21h2z" style="fill:#e4e4e4"/><path d="m238 474-1-206-9-1h-2l-12 206zM249 246q0 5-5 5h-13q-5 0-6-5v-16q1-5 6-5h13q5 0 5 5z" style="fill:#e4e4e4"/><circle cx="236.9" cy="236.9" r="10.1" style="fill:#cdcccb"/><path d="M197 250h15c4 1 23-11 23-11q-1-5-6-6L43 223q-5-1-7 6z" style="fill:#d7d7d7"/><path d="m198 248 15 1c3 0 22-12 22-12q0-5-6-6L44 221q-6-1-7 6z" style="fill:#e9e9ea"/><path d="m245 199-7 13c-2 3 0 25 0 25q5 3 9-3l90-162q3-5-2-9z" style="fill:#d7d7d7"/><path d="m245 197-8 13v25q5 3 9-2l90-163q3-5-2-8z" style="fill:#e9e9ea"/><path d="m268 265-8-13c-2-3-22-12-22-12q-5 4-2 9l98 157q4 5 9 3z" style="fill:#d7d7d7"/><path d="m269 263-8-13c-2-3-22-12-22-12q-5 4-2 9l98 157q4 5 9 2z" style="fill:#e9e9ea"/><circle cx="236.9" cy="236.9" r="6.5" style="fill:#e4e4e4"/></svg>