<svg xmlns="http://www.w3.org/2000/svg" width="800" height="800" class="icon" viewBox="0 0 1024 1024"><path fill="#9af4ef" d="M0 512a512 512 0 1 0 1024 0A512 512 0 1 0 0 512"/><path fill="#c5f8f1" d="M872 148a91 91 0 0 0-58 67h-2c-49 0-90 32-104 75q-11-3-23-3c-50 0-90 41-90 90l51 162s297 22 303 21c3-1 38-35 74-72-6-133-63-253-151-340"/><path fill="#defbf2" d="M606 381v-6a119 119 0 0 0-134-118 153 153 0 0 0-277 3 127 127 0 0 0-105-37C33 305 0 405 0 512v10q20 8 54 8c122-2 498-41 505-40l110 21a102 102 0 0 0 6-34c0-45-29-82-69-96"/><path fill="#94d75b" d="M13 397a513 513 0 1 0 1003 26c-92 4-96 73-211 73l-163 2c-40 0-209-134-318-134-107 0-181 32-311 33"/><path fill="#71be63" d="M675 571c22-79-84 14-88 22l-208 413a512 512 0 0 0 133 18c115 0 221-38 307-102l26-125c-40-86-193-147-170-226M84 792l412-74 63-202c-105 19-230 66-384 23-51-15-128-23-175-7q8 146 84 260"/><path fill="#ffefc6" d="m317 920-34 50q88 45 192 53c115-83 178-439 215-484 0 0-347 347-373 381"/><path fill="#646464" d="M436 837a16 16 0 0 1-11-4 16 16 0 0 1-1-23l37-47c5-8 15-9 22-4a16 16 0 0 1 4 22q-20 29-39 51a16 16 0 0 1-12 5m69-97-8-3c-8-4-10-14-6-22l67-114a16 16 0 1 1 27 17 1509 1509 0 0 0-66 114 16 16 0 0 1-14 8m-286 97a16 16 0 0 1-16-15 16 16 0 0 1 15-17l31-5q15 0 19 13a16 16 0 0 1-13 19l-34 5zm98-23a16 16 0 0 1-15-11 16 16 0 0 1 9-21q44-17 77-46a16 16 0 0 1 23 2 16 16 0 0 1-2 23q-38 31-86 51z"/><path fill="#b0eb81" d="M636 497c-47-10-207-133-312-133-104 0-178 31-302 33q20 2 64-4c369-42 312 104 550 104"/><path fill="#ffefc6" d="M35 697a511 511 0 0 0 61 113l294-55 181-216-12-23C450 552 263 715 35 697"/><path fill="#57b9e7" d="m804 496-162 2-6-1C437 513 387 753 62 756a514 514 0 0 0 280 239c288-150 234-499 462-499"/><path fill="#43ab5f" d="M224 611q-2-18-20-20-15 1-20 15a29 29 0 0 0-56-2 35 35 0 0 0-18-17 34 34 0 0 0-65-7l-12-3q-16 0-27 10 6 40 17 77c103 5 226-26 286-61 0 0-38 6-85 8m737 148a98 98 0 0 0-176 61v3a89 89 0 0 0-44 24 95 95 0 0 0-37-7c-52 0-94 43-94 95a60 60 0 0 0-54 87 512 512 0 0 0 405-263"/><path fill="#79ceea" d="M474 610c-67 81-44 132 13 79 98-94 219-189 288-193l-133 2c-60 9-104 33-168 112"/><path fill="#3c9bd4" d="M624 632c-29 56-198 270-401 302q54 38 119 61c171-89 222-248 282-363m0 0 1-2zm-136-74C383 635 291 754 62 756q12 23 27 44c197-4 323-183 399-242"/><path fill="#b0eb81" d="M1016 423c-92 4-96 73-211 73h-7c24 9 52 15 83 10 91-16 126-15 143-6a518 518 0 0 0-8-77"/></svg>