<svg xmlns="http://www.w3.org/2000/svg" xml:space="preserve" viewBox="0 0 512 512"><path d="M463 239c20 33 25 70 23 108q-2 34-15 65-15 41-54 56c-49 16-94-3-107-63q-6-23-2-47c1-3 6-4 7 0q5 12 13 22 27 30 68 15c36-13 59-46 61-85q1-25-7-49c-9-25-40-35-61-16q-14 13-26 31l-24 36q-13 18-34 21h-26q-12 2-9 14l2 5c15 41 15 81-11 117a89 89 0 0 1-54 40q-78 15-131-44-45-52-49-119l-1-33c0-5 6-6 7-2h1q10 33 23 66 10 28 34 46a130 130 0 0 0 113 12c32-13 44-52 25-81q-14-19-39-19c-7-1-16 4-23 1-28-12-32-39-36-63q0-8 8-9l15 1q22 3 45-4 18-8 26-23 5-8 0-17-15-27-47-21-35 8-67 26-8 3-14-4l-24-40q-3-6 2-11 15-12 33-21 37-19 81-17 53 4 69 57c7 26-1 49-14 71q-10 20-29 31l-5 4 30 11q20 5 33-9 12-15 21-31l26-42q23-32 62-34c39-2 63 18 81 48M375 38q5 6 0 11l-36 36q-6 4-11 0l-36-36q-5-5 0-11l36-36q6-4 11 0z" style="fill:#f95428"/><path d="M449 106c6 10 6 12-3 20q-40 32-91 37-41 6-76-19-38-30-45-79c0-6 5-9 7-5q11 17 27 30 47 39 99 13 21-10 40-25c12-9 12-9 21 2z" style="fill:#f95428"/></svg>