<svg xmlns="http://www.w3.org/2000/svg" width="500" height="500"><defs><linearGradient id="a" x1="0%" x2="100%" y1="0%" y2="100%"><stop offset="0%" stop-color="rgba(55, 125, 5, 0.7)"/><stop offset="50%" stop-color="rgba(55, 125, 5, 0.2)"/><stop offset="100%" stop-color="rgba(55, 125, 5, 0.05)"/></linearGradient><filter id="b" width="140%" height="140%" x="-20%" y="-20%"><feDropShadow dx="0" dy="8" flood-color="#000" flood-opacity=".1" stdDeviation="10"/></filter></defs><path fill="url(#a)" stroke="rgba(255, 255, 255, 0.6)" stroke-width="2" d="m121 180 7 4 3 5 3-1 4-2 7 3v3l7 5 9 2 1 4 10 3 6-1 8-2 8 10 5-1 2-6 3 1 10 7 2 5h9l6-4 7 3 3 5 20 10 10 3 2 4 5 6 6 1 3 6 17 8 8 5 5-4h7l3 4 5 1 15 10 13-2 3 1 2 7-1 6 12-1 7 3h9l6 7h4l4-4-1-5 13 1 13 6 2 2 3 4 5 6-1 6 5 2v10l13 5 4 7 5 3-8 2-10-2-4 5-8 3-1 4 15 4 2 7-6 3-2 7 15 9h3l8 4 9 6-1 3-3 4-14-4-1 4h-7l-4-4-4 3 1 3-9 5-6 8-4 2-2-1-6 4-7 2-11 8v11l3 14 5 2 3 6v6l-2 1-6 2-1 11 2 3-5 10-8 11-7 3h-9l-8-5-9-10 5-3 2-12-4-1 2-7 3-5-1-4h-4l-3-3-9 1-6 1v4l-7-1-5-11-8-2-9-1-3-9-6-1-8-4-2-6-6-1-2 2-7 1-7-2-1 7-6 9h-2l-6-3-5-1-5 3-2-7 3-2-2-7-8 4v3l-8-1-5 3-2 4-4-6-4 3h-5l2-2 4-4 4-3-1-5-6-2v-7h-5l-8 3h-4l-11 9-1 6-5-2-5 1-6-3-5 5-5-1-1-4 3-5-6-5h-4l-1 3 1 2 1 4h1l1 2-5 2h-7l-4-6-8 1-3 3-1-2 5-10-4-2 3-7-3-1-10 3 3 7-7-2-9 6 3 4 5 9-1 7 3 3 6 3v9l-1 7 8-3 4 6-2 5 4 1v2l-1 4-10 10-6-3-7-7-6-3-7 8-3-4 2-3-6-4 1-13-6-11-1-2 11-9-1-3v-1l3-1 4-1-3-5-3-8v-7h3l1-2v-3l2-3 13 1 4-3 5-1-3-6 8-12 3-2 1-5 4-3-1-7 8-9v-6l-9-8 1-6-8-2-6-4h-14l-9-3-2-3-9 2 3-5-7-2-3 3-7 1-14-3-2 3-12 4-5 5-3-6 5-4 11-4-7-9 7-4-1-4-13-13-6-4 1-8-4-9 4-3h4l7-5 1-4-4-6 1-7v-10l-9-9-3-3 2-3-1-2-1-4-5-3-1-2 1-2v-2l1-4-4-7-2-8 1-8-2-3 1-8-2-9 3-4-2-4 3-3 3-8 14-14 8-9v-5h5l4 4 14 6-6 7-3 1-6 13 7 13 6-2 6 8 7-4 4-6 8-3 11 4 1 5 5 5 12 6 7 2-4 5z" filter="url(#b)"/></svg>