<svg xmlns="http://www.w3.org/2000/svg" width="800" height="800" aria-hidden="true" class="iconify iconify--twemoji" viewBox="0 0 36 36"><path fill="#292f33" d="M12 36V16l-2 2-3 1-2 4-5 13z"/><path fill="#4b545d" d="m32 36-5-18-9-5-6 2-2 3-1 4-9 14z"/><path fill="#292f33" d="M18 26v-2l-1-1v-2h1l1 2-1-4 1-3-3 5c-1 2 1 8 1 8l-4 7h4v-2l2-5zm16 0-3-2-4-8-4-3-2 2 2 3 1 4 1 2 2 2 1 1 1 3-1 2 1 4h7z"/><path fill="#ffac33" d="m26 22-1-3c0-2-5-5-5-5h-2s4 2 5 5v4l1 3v3l-1 1v2l2-3v-8l1 3z"/><path fill="#292f33" d="m9 25-6 5-3 6h5l-1-3q0-1 1-3l3-2v1l1-2z"/><path fill="#ffac33" d="M18 13s-4-2-6 1q-3 1-2 4 0 4-2 4l-2 4-2 2-1 2 2-1 4-4v5l1-2-1-4q2-1 3-7c1-3 6-4 6-4l2 1v-1z"/><path fill="#e95f28" d="m28 17-4-4-1 1q1-1 5 7 1 2 3 5l3 5zm-10 2zl2-4h-3l-2 6q-1 10 2 9l-1-5v-3zv3l2 2z"/><path fill="#e95f28" d="M24 13s1 1-2 1l-1 1h-5l-2-1-2-1 3-1 1 1h2l2-1 2 1z"/><path fill="#ffac33" d="m26 7-7-1-8 1q5 5 3 6h8q0-1 4-6M22 13zv1h-4l-1-1-1 1-1-1h8"/><path fill="#e95f28" d="M17 14v-2l-1-3h-1zq1 1 0 0m2 0v-4l1-2h-3l1 2zm2 0 1-3 2-4h-3v3z"/><path fill="#ccd6dd" d="M30 2zh-1l-2-1-2 1h-1l-3 1h-3l-3-2-2 1h-1L9 2 8 1 6 2a2 2 0 0 0 0 4h1l2 1h1l1 1 3 2 3-2 3 1 3-2h1l4-1h2a2 2 0 0 0 0-4"/><circle cx="14.3" cy="4.7" r="2" fill="#aab8c2"/><circle cx="11.8" cy="4.5" r="2" fill="#aab8c2"/><circle cx="9.8" cy="4.6" r="1.1" fill="#aab8c2"/><circle cx="23.7" cy="3.7" r="1.1" fill="#aab8c2"/><circle cx="26.2" cy="3.3" r="1.5" fill="#aab8c2"/><circle cx="16" cy="4.3" r="1.6" fill="#aab8c2"/><circle cx="25.6" cy="4.2" r="1.8" fill="#aab8c2"/><circle cx="17.4" cy="4.8" r="1.5" fill="#aab8c2"/><circle cx="14.2" cy="3.5" r="1.7" fill="#aab8c2"/><circle cx="14.2" cy="5.3" r="2.9" fill="#aab8c2"/></svg>