<svg xmlns="http://www.w3.org/2000/svg" xml:space="preserve" viewBox="0 0 500 500">
  <path d="M500 790a250 250 0 1 1-500 0 250 250 0 0 1 500 0" style="fill:#fff" transform="translate(0 -540)"/>
  <path d="M489 791a240 240 0 0 1-479 0 240 240 0 0 1 479 0" style="fill:#38b4af" transform="translate(0 -540)"/>
  <path d="M15 835a240 240 0 1 1 471-5l-236-40z" style="fill:#0aaeb8" transform="translate(0 -540)"/>
  <path d="M180 699c-4-22 6-43 25-55s44-13 63-1 29 33 26 54l-57-9z" style="fill:#fec228" transform="translate(0 -540)"/>
  <path d="m186 626-40 52-18-23-12 15a94 94 0 0 0-61-18q-33 46-42 102 20 10 45 10c36 0 67-17 76-42h45l-8-10h45l-4 5h78l-4-5h45l-8 10h45c9 25 41 42 76 42q23 0 42-9-8-57-42-103-34 0-58 18l-12-15-18 23-40-52-47 63-18-24-18 24z" style="fill:#487b74" transform="translate(0 -540)"/>
  <path d="m251 665-39 52h78z" style="fill:#487b74" transform="translate(0 -540)"/>
  <path d="m119 661-27 31-12-14-8 10q-13-9-33-11-16 31-24 66l17 2c24 0 45-11 51-26h31l-5-6h30l-2 3h53l-3-3 178-1-186-9-16-18-12 14z" style="fill:#83a6a4" transform="translate(0 -540)"/>
  <path d="m416 675-31 37h-2l-11-13-11 13H23l-7 27h439q9 14 32 19-5-32-17-60l-6 4-9-9-12 14z" style="fill:#193d3a" transform="translate(0 -540)"/>
  <path d="m471 697-36 32-14-13-19 18H17l-5 27h476q-5-34-17-64" style="fill:#21663c" transform="translate(0 -540)"/>
  <path d="M20 721a240 240 0 0 0 11 167h438a240 240 0 0 0 14-150h-12q-12-7-37-7-16 0-28 4a131 131 0 0 0-33 3h-21q-12-4-31-4-18 0-31 4H165q-12-3-28-4-17 1-28 4H98a107 107 0 0 0-43-3 93 93 0 0 0-35-14" style="fill:#0b8480" transform="translate(0 -540)"/>
  <path d="m297 571 22 14q-12 6-15 17l21-13 9 5q0-4-4-8l11-7-15 3q-11-9-29-11m37 23 27-16-6-3q-16 7-21 19m-30 8c-4-13-20-22-38-23z" style="fill:#fff" transform="translate(0 -540)"/>
  <path d="M221 736q-5 0-5 7v86l-4 44-4-1q-13 0-20 8h-8q1-2-7-8-7-6-9-5l7 8 8 5h-1c-24 0-42 6-42 13s18 13 42 13l18-1a32 32 0 0 0 20 1v31q0 5 5 6h64q4-1 5-6v-41h4a113 113 0 0 0 52 11q7 8 21 8c13 0 24-7 24-17 0-9-11-17-24-17q-11 0-19 6a111 111 0 0 0-46-11l2-4 2-10q-2-1-5 9l-2 5h-7l-2-22V743q-1-6-5-7zM64 877q-22 2-24 17 1 17 24 18 11 0 18-7 6 12 23 13c14 0 25-8 25-17 0-10-11-18-25-18q-11 1-18 7-6-12-23-13" style="fill:#38b4af" transform="translate(0 -540)"/>
  <path d="m415 908-8 3q0 4-5 7-7 4-13 0c-6-4-5-5-5-7l-8-2q-2 12 9 17c11 5 15 3 21-1q11-5 9-17m-33 26-8 2q1 5-5 8-8 4-13 0-7-5-5-7l-8-2q-2 11 9 17c11 6 15 3 21-1s11-10 9-17m-36 29-8 2q0 4-4 7-7 4-14 0c-7-4-5-4-5-7l-8-2q-1 12 9 17 13 6 22 0 12-8 8-17m-15-49-8 3q2 3-4 7-9 5-14 0c-5-5-5-4-4-7l-9-2q-1 11 10 17c11 6 14 3 21 0s10-11 8-18m-45 25-9 2q2 5-4 8-8 4-13 0-7-5-5-7l-8-2q-2 11 9 17c11 6 15 3 21-1s11-10 9-17m0 42-9 2q2 4-4 7-8 4-13 1-7-4-5-7l-8-2q-2 11 9 16c11 5 15 3 21 0s11-10 9-17m-185-68 9 3q-2 4 4 7 7 3 13 0 6-4 5-7l9-2q1 11-10 17-10 5-21-1-11-5-9-17m34 26 8 2q-2 5 4 8 7 3 14 0 6-3 4-7l9-2q1 11-10 17-10 5-21-1c-11-6-10-10-8-17m35 28 9 3q-2 4 4 7t13 0c7-3 6-5 5-7l9-2q1 11-10 17c-11 6-15 3-21 0s-11-11-9-18m15-48 8 3q-1 3 5 7 8 5 13 0 5-3 5-7l8-2q2 12-9 17t-21-1q-11-5-9-17m41-165 2 4v65l-2 4q-3-1-3-4v-65q0-4 3-4m16 31q2 0 2 3v46l-2 3-3-3v-46q1-3 3-3m10 42q3 0 3 3v46q0 2-3 2l-2-2v-46q0-3 2-3m5-83 2 4v65l-2 4q-3 0-3-4v-65q0-3 3-4m19 69q0 16-2 18-3-1-3-18c0-17 1-19 3-19s2 8 2 19m-7 27 2 2v36l-2 2-3-2v-36zm-44 2 2 2v36l-2 2-3-2v-36q0-2 3-2m45-95q2 0 2 3v36l-2 2q-3 0-3-2v-36q0-3 3-3" style="fill:#0b8480" transform="translate(0 -540)"/>
  <path d="M176 865q3 10 5 9 2-2-2-10t-6-9zm136-2q-3 9-1 11 2 0 4-10 3-9 1-10-2 0-4 9" style="fill:#38b4af" transform="translate(0 -540)"/>
</svg>
