<svg xmlns="http://www.w3.org/2000/svg" xml:space="preserve" viewBox="0 0 512 512"><circle cx="256" cy="256" r="247.8" style="fill:#c4f5ff"/><path d="m41 256 2 33 21 65a215 215 0 0 0 363 33l34-66q10-30 10-65z" style="fill:#7fb21e"/><path d="M216 289H43q6 35 21 65h152a33 33 0 1 0 0-65M461 321H360a33 33 0 1 0 0 66h67q22-30 34-66" style="fill:#4de1ff"/><path d="m327 132-36 91h72z" style="fill:#7fb21e"/><path d="M277 149a41 41 0 0 0-51-40 50 50 0 0 0-97 0 41 41 0 0 0-51 40z" style="fill:#89ebff"/><path d="m432 132-36 91h72z" style="fill:#557714"/><path d="M269 387h-75a16 16 0 0 0 0 32h75a16 16 0 0 0 0-32" style="fill:#4de1ff"/><path d="M437 75a254 254 0 0 0-362 0 254 254 0 0 0 0 362 254 254 0 0 0 362 0 254 254 0 0 0 0-362M256 496a240 240 0 1 1 1-480 240 240 0 0 1-1 480" style="fill:#03242b"/><path d="M78 157h199q7-1 8-8a49 49 0 0 0-54-49 58 58 0 0 0-108 0h-4c-27 0-49 22-49 49q0 7 8 8m41-41 8 1q7 1 10-6a42 42 0 0 1 81 0q2 7 10 6a33 33 0 0 1 40 24H87q7-24 32-25M86 313a8 8 0 0 0 0 17h21a8 8 0 0 0 0-17zM132 321q1 8 8 9h76a8 8 0 0 0 0-17h-76q-7 1-8 8" style="fill:#03242b"/><path d="M433 392q24-30 36-68 10-32 10-68 0-8-8-8h-31v-17h28a8 8 0 0 0 7-11l-36-91a8 8 0 0 0-15 0l-36 91a8 8 0 0 0 8 11h28v17h-89v-17h28a8 8 0 0 0 8-11l-36-91a8 8 0 0 0-16 0l-36 91a8 8 0 0 0 8 11h28v17H214v-14a8 8 0 0 0-17 0v14h-49v-14a8 8 0 0 0-16 0v14h-17v-14a8 8 0 0 0-16 0v14H83v-14a8 8 0 0 0-17 0v14H41q-8 0-8 8 0 53 23 100l1 1 1 1q22 44 62 75a8 8 0 0 0 10-13q-32-25-52-58h138a41 41 0 0 0 0-81h-27a8 8 0 0 0 0 16h27a25 25 0 0 1 0 49H69q-11-24-16-49h103a8 8 0 0 0 0-16H50l-1-17h414q-2 26-8 49h-95a41 41 0 0 0 0 82h49a206 206 0 0 1-253 42 8 8 0 1 0-8 15 223 223 0 0 0 285-60m-1-237 24 60h-48zm-105 0 24 60h-48zm33 224a25 25 0 0 1 0-49h89q-9 26-26 49z" style="fill:#03242b"/><path d="M269 428a25 25 0 0 0 0-49h-75a25 25 0 0 0 0 49zm-83-25q1-7 8-8h75a8 8 0 0 1 0 16h-75q-7 0-8-8M382 346h-22a8 8 0 0 0 0 16h22a8 8 0 0 0 0-16" style="fill:#03242b"/></svg>