<svg xmlns="http://www.w3.org/2000/svg" width="800" height="800" aria-hidden="true" class="iconify iconify--fxemoji" viewBox="0 0 512 512">
  <path fill="#13a031" d="M388 144q5 0 7 6 1 3 6 3 6 0 5 4 0 6 4 5h12q5-3 7 5 1 2 2 1c5-3 12 0 17-3q7-3 12 2 3 4 6 1 4-1 6 1 5 5 12 2h2c2-1 0 4 2 2l4-1q11 0 18 6l-2 7-1-1-3-2-3 5q0 4-3 4-4 0-7 2l-5 1q-7 0-8 7-2 8-8 11-2 1-2-1-2-5 1-10l3-4q2-1 2-3-1-2-4-1l-4 2q-2 3-5 2-10-3-18 4c-1 2-5 2-4 5 2 3 5 1 7 2q4-1 4 2 2 4 0 7l-2 2-1 2v-3l-1-3-1 3q-2 8-11 11-8 0-5 8 2 3-1 4t-4-2l-1-4q0-2-3-1-1 2-3 0 0-2-2 0l-1 2 2 1q5-1 2 3-2 2-1 4 2 13-10 18-3-1-5 3-1 2-2 0-2-2-4 0v3l2 2q6 7-3 11-1 1-2-1-2-4-6-3-3 4 2 7 3 3 3 5c-1 4 3 7 3 11q1 3 3 2 6 3 13 3l1 1-1 1-15-2q-6-2-9-9l-6-8q-2 0-1-2h3l4 4h1v-1q-5-7-4-15 1-4-4-4-2 0-3-3-4-9-10-1l-4 2q-7 5-3 13v3h-3q-7-3-8-11-3-8-10-15l-3-2h-9q-3 1-1 3l2 2q1 1-1 2-4 8-12 9l-8 4-2 1 2 1 6-1q4 0 2 4-3 7-9 13c-7 5-8 7-5 15 2 6 2 7-4 11q-4 2-3 6v3q-5 5-8 11-6 7-15 6l-4-3q-1-8-4-14-5-10-2-20l-2-7q-3-5-3-11l-2-3q-5 0-9-2-6 0-10 2-3 2-6 0l-11-12v-1c1-8-2-17 5-23l9-10q2-2-1-4-2 0-2-3v-7q2-3 6-2 8 2 5-6 0-4 2-5l8-6q6-3 2-9l-2-4q-2-6 3-8t7-6q3-8 11-10l7-2q4-3 10 1l9 4 3 2q4 6 6-1 1-2 3-1 3 3 6 1l10-2c4 0 1-2 1-3v-1l9 2q2 1 3-2 2-7 9-6l7 1q2 1 3-2t5-2q4 3 5-2l2-2 13-3q6 1 3-6zm-136 83q-6 2-9 7l-4 5-1 1h2l11-3 6 1 1 5q0 2 3 2c4 0 7 4 12 1h3l13 1q4-1 4-4 0-2-3-2l-4-1q-6 1-6-5l-2-1-1 1q-3 4-7 1l-1-2c-4 2-6-2-9-3q-3-2-3 1 0 2-3 3-2-1 0-4c0-1 2-4-2-4m16-22q4 0 4-2 2-6 0-12 1-2-2-3-3 2-2 4c4 5-1 8-3 10q-2 4-6 1l-1-1-1 2q2 4 6 3zm33 24-6-6-2 2q-3 2-4-1 0-2-2-1-3 2-3 6 0 2 3 2 5-2 11 1 2 1 3-3m-4 32-1 2q0 4 4 7l2 2q2-2 0-4l-3-6zM-4 209l16-8 2-1-2-1-8-5q-4-3 0-6l3-1 2-1H4l-3-3q1-3 4-3h2l-1-1q-7-4 0-7l3-2q5-2 12-1l14 3q9 2 18-1 10-1 19 2h2l-1-2q-2-1-2-3h-3l-5 1q-2-1-2-5l2-3q1-4 3-2l11 3q5 4 10 1 4-3 4 2l2 4q6 2 1 6-1 2 1 2 2 2 3-1l3-4q4-3-1-3-4-1-6-4l6-4h4l4-4-1-2q-3-1-6 1c-2 4-6 1-10 2v-3l-1-7q2-5 6-2 2 1 2 3h-3q-2 0-3 2l3 2h4q5 0 2-4-2-1 0-4l3 2q3 1 2 4l3 1 1-1q1-1-1-3h-1q-11-6 1-12l5-2 24-3 11 1 4 2-3 2q-2 1-1 2h2q6-4 14-4 5 1 11-2l15-2h3c6-4 11 2 17 2l1 1-2 1h-8l-2 1h2l18 1q4-2 4 1l-3 3c-4 2-9 5-6 11v2c0 6-5 10-4 16l-2 4q-5 3-11 4h-1c-6 4-14 6-16 14q0 4-5 3-7-3-9-8-4-6 0-11v-2l-6-9q-3-10-12-9-8 1-11-5-2-3 1-3l5-2v-3q0-2-2-1-8 3-12 12l-3 6q-1 2-5 2h-2l2 1 14 4q5 3 9 9 2 3 7 4 2 0 1 2-1 3-4 2l-2-2h-2l1 2 1 1q3 2 2 4-2 3-6 2-6-4-13-4l-1-1 1-1 3-1q4-1 3-6c-1-3-8-6-11-5q-2 0 0 2c-1 2 1 6-4 7q-2 0 0 2c1 1 5 2 4 3 0 2-3 0-5 2h-3c-3-3-5 0-7 1q-9 7 1 11l5 3q7 1 10 8 0 2 2 1v-3q-2-3 2-5v-9q-1-8 7-5l5 4q1 4 6 2 3-2 4 2 2 5 7 8 5 2 3 7 0 3 2 2l3 4-1 2-7-1-1-3q1-4-2-2h-4q-5-1-2 4 1 4 4 2 1-2 3 1l-2 2q-4 3-9 2h-3q-2 5-6 6l-1 2q-3 8-9 12-3 4 0 7v4q-2 1-3-2l-2-3q-3-4-7-2l-6 1q-5-1-6 5c1 2-2 5 0 7q3 3 7 2l2-2 4-1v4q-3 5 3 5 3 0 3 3-1 4 2 5 4 2 8 0 6-5 13-1h4c8 1 12 8 19 10 2 8 11 7 16 10l5 3q5 2 2 6l-4 10q-1 9-10 12-3 1-4 4c-3 9-3 10-13 13v1q0 5-5 6-2 0-3 4l-6 8 1 2q2 1-1 3c-3 5-3 6 0 11q2 1 0 2-8 1-11-6-3-5-1-11l4-22 2-18q0-6-4-9l-7-8-1-3c-1-2-6-3-3-7l3-8q3-2 2-4 1-3-2-3-7 0-10-6 0-2-2-2-6-3-14-4-7 0-13-9-1-4-6-3-4-1-7-7-2-7-8-12-7-7-6-15 2-6-4-10l-1-2q0-6-6-6-2 0-2-2-5-10-16-12l-7 2q-4-2-3 4-1 3-3 2-5-1-7 3l-1 1c-5 0-10 4-15 4zm115-45-3 2v2q3 5 7 7l2 2 2-3-2-2q-4-1-5-6z"/>
  <path fill="#13a031" d="M447 313q1-4-4-6h-1c1-7-4-6-7-7l-2-2q-2-2-1-3 2-2 4 0 2 3 6 2 8-1 13 7 3 2 3 4-2 2-5-1h-4v4q5 10 12 18 6 6 1 14l-2 3q-6 13-16 3l-11-7q-3-2-7 0-4 4-12 4-5 3-5-4-3-6-2-12-1-6 5-6 4-1 6-6 2-3 8-4 3 1 4-1 3-4 7-2 2-1 2 2-1 6 5 5 3-1 3-5M264 142l-6 1q0 5 3 6 0 2 2 3 3 2 5 0 3-4 6-1l2-1 1-1c-6-4-1-4 1-4l3-2 1-1-1-1-9-1zM86 153q-1-2-3 0c-2 5-5 1-6 0q-6-6-11 0-2 3 1 3l10 3c3 3 11 1 14-3v-1zm314 139v1q0 5 4 6t7-2l3-11-4-2zm-86 20q-5 2-8 6-2 5-1 10-1 3 2 3l4-2q3-6 4-13zm12-142q-6-4 1-9 3-3 9-5l5-2v-1q0-2-2-1c-7 2-15 3-20 11q-3 4 2 7zm163 194 7-8q6-3 0-7-1-2-2-1-2 1-1 2 2 4-3 7l-6 6q-1 4 2 4 2 0 3-3m-42-132h-3q-3 7-11 9-3 1-3 5l1 1 13-6 4-7zm-65-93q-5-2-6 2-1 3 3 5l6 2 3-4zm59 17q0 2 2 3l1 2q1 3 4 2c2-1-1-2 0-3l2-2q1-3-1-3h-3q-3-1-5 1m-23 122q3 1 5-1 1-2-2-3-4-1-2-4 1-1-1-3-2 0-2 2l-1 2q0 4 3 7m-4 19q-1 3 2 5 3 0 3-3 1-3-3-4-2 0-2 2"/>
</svg>
