<svg xmlns="http://www.w3.org/2000/svg" viewBox="0 0 500 500" width="500" height="500">

  <defs>
    <linearGradient id="glassGradient" x1="0%" y1="0%" x2="100%" y2="100%">
      <stop offset="0%" stop-color="rgba(0, 200, 100, 0.8)" />
      <stop offset="50%" stop-color="rgba(0, 200, 100, 0.4)" />
      <stop offset="100%" stop-color="rgba(0, 200, 100, 0.2)" />
    </linearGradient>
    
    <filter id="glassShadow" x="-20%" y="-20%" width="140%" height="140%">
      <feDropShadow dx="0" dy="8" stdDeviation="10" flood-color="#000000" flood-opacity="0.15" />
    </filter>
  </defs>

  <path d="M224,371 L221,375 L214,375 L212,372 L207,382 L200,384 L199,388 L194,389 L193,385 L186,386 L186,383 L179,383 L181,391 L172,394 L170,392 L170,395 L166,400 L157,396 L152,396 L144,398 L138,401 L137,409 L136,412 L127,420 L121,418 L117,413 L118,408 L121,408 L124,404 L130,402 L132,398 L136,386 L128,385 L124,382 L125,374 L126,370 L122,370 L115,371 L116,368 L111,363 L112,359 L111,355 L105,355 L103,350 L95,353 L94,358 L85,360 L77,365 L77,361 L75,356 L70,357 L62,355 L61,358 L56,362 L51,357 L55,352 L49,347 L50,343 L47,339 L53,338 L54,345 L62,348 L69,347 L73,353 L75,351 L73,347 L73,339 L79,340 L78,333 L74,331 L72,334 L60,331 L59,336 L53,336 L46,330 L47,323 L42,320 L40,317 L41,313 L44,307 L46,297 L40,296 L42,291 L52,295 L59,294 L61,288 L59,284 L61,280 L56,279 L54,273 L54,262 L57,261 L54,252 L56,248 L66,245 L80,247 L87,249 L95,250 L99,248 L109,252 L114,251 L118,245 L118,243 L127,239 L134,241 L137,239 L144,243 L153,237 L153,234 L159,231 L166,232 L169,231 L169,225 L169,216 L171,214 L179,213 L181,211 L186,210 L193,207 L199,205 L204,207 L207,210 L213,204 L214,200 L212,195 L213,192 L220,190 L226,192 L227,197 L240,203 L240,200 L242,195 L238,193 L229,192 L237,187 L240,183 L247,186 L254,189 L256,187 L256,182 L259,179 L262,181 L272,179 L272,174 L277,174 L279,169 L264,164 L258,157 L256,152 L261,150 L266,152 L267,149 L271,146 L276,148 L283,148 L295,148 L300,145 L305,141 L314,138 L317,135 L324,136 L328,139 L332,136 L333,129 L331,129 L335,119 L334,116 L337,113 L340,111 L347,119 L346,124 L356,120 L357,115 L362,118 L366,119 L371,117 L368,114 L370,110 L367,106 L375,97 L378,99 L389,93 L384,87 L386,85 L392,88 L393,84 L399,81 L402,81 L407,91 L407,86 L409,85 L414,96 L422,95 L425,99 L432,96 L437,97 L443,90 L442,89 L447,83 L451,85 L453,81 L457,80 L460,82 L452,92 L449,97 L446,100 L438,109 L428,119 L427,122 L417,127 L402,134 L395,141 L389,146 L386,153 L376,161 L369,164 L367,166 L352,173 L343,178 L332,188 L328,194 L328,197 L334,198 L332,209 L331,214 L327,215 L313,223 L307,224 L300,227 L291,225 L283,225 L276,229 L274,232 L270,245 L263,251 L263,256 L259,258 L254,259 L251,250 L246,249 L238,251 L232,254 L227,258 L223,263 L221,271 L216,276 L212,295 L216,310 L220,318 L219,330 L217,336 L218,346 L223,360 L222,366 L224,371 Z M325,205 L325,205 L328,206 L329,207 L329,205 L325,205 Z" 
        fill="url(#glassGradient)" 
        stroke="rgba(255, 255, 255, 0.6)" 
        stroke-width="2" 
        filter="url(#glassShadow)" />
</svg>