<svg xmlns="http://www.w3.org/2000/svg" viewBox="0 0 500 500" width="500" height="500">

  <defs>
    <linearGradient id="glassGradient" x1="0%" y1="0%" x2="100%" y2="100%">
      <stop offset="0%" stop-color="rgba(0, 200, 100, 0.8)" />
      <stop offset="50%" stop-color="rgba(0, 200, 100, 0.4)" />
      <stop offset="100%" stop-color="rgba(0, 200, 100, 0.2)" />
    </linearGradient>
    
    <filter id="glassShadow" x="-20%" y="-20%" width="140%" height="140%">
      <feDropShadow dx="0" dy="8" stdDeviation="10" flood-color="#000000" flood-opacity="0.15" />
    </filter>
  </defs>

  <path d="M231,282 L235,289 L232,290 L215,302 L202,315 L204,321 L194,326 L192,328 L178,331 L172,329 L148,332 L145,332 L136,326 L120,324 L119,325 L112,329 L104,329 L98,331 L86,334 L80,334 L79,326 L74,321 L74,314 L77,306 L76,297 L73,291 L67,293 L47,291 L40,284 L40,280 L45,275 L45,268 L59,268 L63,274 L71,271 L76,271 L83,266 L90,264 L94,270 L105,267 L112,267 L120,261 L125,256 L119,249 L121,245 L129,239 L136,239 L146,232 L160,229 L157,223 L164,218 L168,208 L179,205 L189,207 L205,203 L213,203 L216,193 L227,185 L229,179 L237,171 L242,171 L247,166 L256,165 L258,162 L265,158 L273,166 L279,169 L306,174 L307,178 L321,179 L327,167 L330,166 L339,160 L352,154 L357,154 L366,149 L373,156 L378,165 L388,164 L385,170 L376,172 L371,178 L378,186 L385,180 L391,179 L397,184 L399,191 L404,197 L402,202 L394,205 L396,208 L384,217 L387,219 L383,226 L397,224 L402,221 L408,221 L416,228 L425,227 L432,232 L439,228 L444,233 L448,233 L459,238 L456,243 L456,250 L460,254 L459,261 L450,261 L443,267 L434,272 L425,282 L422,281 L427,289 L425,293 L429,297 L439,311 L444,316 L437,319 L431,315 L422,312 L424,307 L417,301 L404,300 L397,305 L382,305 L366,310 L362,313 L356,322 L346,325 L342,334 L337,333 L332,340 L324,339 L319,348 L310,351 L305,349 L303,337 L304,332 L302,324 L307,324 L315,318 L315,319 L320,317 L323,309 L326,307 L334,309 L341,307 L350,307 L357,304 L361,299 L356,295 L352,295 L351,287 L344,281 L344,273 L358,257 L347,256 L332,257 L325,262 L325,263 L315,266 L310,264 L298,267 L277,274 L249,286 L242,285 L233,280 L231,282 Z" 
        fill="url(#glassGradient)" 
        stroke="rgba(255, 255, 255, 0.6)" 
        stroke-width="2" 
        filter="url(#glassShadow)" />
</svg>