<svg xmlns="http://www.w3.org/2000/svg" viewBox="0 0 500 500" width="500" height="500">

  <defs>
    <linearGradient id="glassGradient" x1="0%" y1="0%" x2="100%" y2="100%">
      <stop offset="0%" stop-color="rgba(0, 200, 100, 0.8)" />
      <stop offset="50%" stop-color="rgba(0, 200, 100, 0.4)" />
      <stop offset="100%" stop-color="rgba(0, 200, 100, 0.2)" />
    </linearGradient>
    
    <filter id="glassShadow" x="-20%" y="-20%" width="140%" height="140%">
      <feDropShadow dx="0" dy="8" stdDeviation="10" flood-color="#000000" flood-opacity="0.15" />
    </filter>
  </defs>

  <path d="M417,180 L410,186 L405,185 L399,190 L391,193 L387,191 L384,194 L379,201 L375,204 L365,206 L353,214 L353,219 L347,224 L345,217 L338,224 L337,231 L333,233 L326,243 L323,256 L325,260 L318,265 L311,264 L311,256 L305,261 L306,264 L296,272 L294,276 L288,279 L281,285 L290,292 L291,300 L285,305 L282,312 L276,323 L276,326 L271,334 L267,333 L265,340 L265,349 L263,351 L260,360 L253,361 L246,359 L244,353 L239,364 L235,365 L234,370 L230,371 L228,375 L222,377 L221,371 L213,371 L207,368 L210,363 L207,353 L210,342 L213,338 L209,327 L213,326 L219,331 L227,329 L221,319 L225,313 L229,314 L234,313 L237,309 L242,307 L246,302 L236,292 L231,290 L237,283 L232,284 L227,280 L222,273 L208,273 L203,276 L203,266 L206,260 L204,256 L211,250 L204,249 L202,251 L184,251 L181,246 L175,252 L174,256 L165,252 L156,265 L149,265 L141,273 L136,264 L127,266 L128,262 L123,258 L108,257 L102,260 L89,255 L72,258 L68,257 L64,260 L53,272 L61,280 L52,284 L51,289 L50,290 L52,280 L48,272 L49,262 L52,258 L42,243 L40,240 L45,231 L49,229 L49,227 L51,213 L50,208 L51,205 L63,206 L73,203 L75,197 L82,197 L88,194 L96,200 L108,203 L123,203 L130,202 L133,199 L142,200 L149,202 L154,198 L159,202 L168,200 L173,200 L186,193 L192,197 L197,198 L200,195 L206,195 L217,193 L223,190 L230,191 L237,187 L238,186 L252,188 L261,193 L264,193 L286,191 L291,192 L304,190 L306,188 L315,183 L313,178 L325,166 L341,154 L344,153 L340,147 L342,146 L350,149 L357,151 L383,139 L402,133 L413,130 L418,132 L427,129 L427,129 L433,124 L447,123 L457,124 L444,139 L444,146 L451,151 L451,159 L455,159 L460,163 L456,167 L449,170 L442,170 L435,172 L428,170 L425,172 L422,179 L417,181 L417,180 Z" 
        fill="url(#glassGradient)" 
        stroke="rgba(255, 255, 255, 0.6)" 
        stroke-width="2" 
        filter="url(#glassShadow)" />
</svg>