<svg xmlns="http://www.w3.org/2000/svg" viewBox="0 0 500 500" width="500" height="500">

  <defs>
    <linearGradient id="glassGradient" x1="0%" y1="0%" x2="100%" y2="100%">
      <stop offset="0%" stop-color="rgba(0, 200, 100, 0.8)" />
      <stop offset="50%" stop-color="rgba(0, 200, 100, 0.4)" />
      <stop offset="100%" stop-color="rgba(0, 200, 100, 0.2)" />
    </linearGradient>
    
    <filter id="glassShadow" x="-20%" y="-20%" width="140%" height="140%">
      <feDropShadow dx="0" dy="8" stdDeviation="10" flood-color="#000000" flood-opacity="0.15" />
    </filter>
  </defs>

  <path d="M131,188 L124,183 L118,173 L101,166 L100,153 L92,149 L95,142 L88,133 L84,128 L81,120 L97,119 L104,112 L117,118 L119,123 L148,128 L154,138 L150,152 L160,156 L166,155 L177,160 L183,167 L197,168 L196,174 L202,177 L209,179 L227,170 L235,169 L243,173 L242,184 L250,191 L254,193 L262,186 L268,185 L282,189 L295,190 L312,196 L314,199 L327,205 L338,204 L355,194 L359,203 L365,207 L382,207 L390,204 L401,209 L407,209 L423,205 L439,208 L445,203 L446,195 L457,203 L460,214 L449,220 L442,227 L434,229 L423,238 L424,239 L423,242 L423,242 L421,247 L421,251 L427,253 L433,265 L440,267 L438,276 L442,286 L433,281 L425,284 L416,291 L418,298 L423,301 L421,306 L416,304 L412,305 L410,300 L398,299 L392,310 L379,308 L376,319 L366,322 L363,325 L364,337 L360,340 L355,359 L347,358 L344,365 L330,359 L321,363 L318,360 L308,369 L304,380 L296,374 L289,372 L291,364 L277,361 L277,353 L270,346 L260,349 L257,347 L243,342 L237,356 L238,362 L227,367 L212,365 L209,369 L205,368 L188,381 L183,377 L172,380 L171,373 L164,367 L145,378 L138,388 L135,383 L125,379 L123,370 L117,367 L103,367 L96,357 L90,365 L85,367 L71,369 L53,367 L55,365 L55,357 L52,349 L44,346 L40,326 L40,311 L56,301 L66,298 L73,292 L77,293 L82,290 L90,279 L102,273 L102,268 L107,265 L113,270 L123,270 L124,264 L143,269 L147,264 L149,259 L136,252 L126,245 L121,246 L100,233 L103,223 L110,219 L109,210 L88,204 L88,199 L100,195 L105,188 L119,191 L131,188 Z" 
        fill="url(#glassGradient)" 
        stroke="rgba(255, 255, 255, 0.6)" 
        stroke-width="2" 
        filter="url(#glassShadow)" />
</svg>