<svg xmlns="http://www.w3.org/2000/svg" viewBox="0 0 500 500" width="500" height="500">

  <defs>
    <linearGradient id="glassGradient" x1="0%" y1="0%" x2="100%" y2="100%">
      <stop offset="0%" stop-color="rgba(0, 200, 100, 0.8)" />
      <stop offset="50%" stop-color="rgba(0, 200, 100, 0.4)" />
      <stop offset="100%" stop-color="rgba(0, 200, 100, 0.2)" />
    </linearGradient>
    
    <filter id="glassShadow" x="-20%" y="-20%" width="140%" height="140%">
      <feDropShadow dx="0" dy="8" stdDeviation="10" flood-color="#000000" flood-opacity="0.15" />
    </filter>
  </defs>

  <path d="M229,310 L224,306 L219,310 L219,310 L217,316 L219,320 L226,323 L227,326 L232,327 L232,338 L230,346 L234,345 L236,351 L240,351 L238,366 L241,372 L244,385 L240,386 L238,394 L234,397 L221,402 L222,408 L212,418 L211,423 L205,423 L196,430 L196,436 L193,443 L193,448 L188,453 L188,458 L179,459 L172,456 L167,460 L162,460 L159,443 L160,435 L152,437 L151,433 L145,435 L144,426 L142,417 L137,411 L125,404 L119,406 L113,398 L113,395 L118,390 L113,384 L117,375 L117,370 L121,367 L127,357 L133,353 L135,359 L145,361 L151,355 L154,345 L142,339 L139,333 L132,329 L131,325 L126,325 L130,317 L131,306 L128,304 L123,304 L121,297 L136,291 L134,287 L136,274 L129,275 L133,268 L132,258 L131,251 L125,251 L124,240 L125,235 L135,232 L139,224 L144,215 L142,202 L145,196 L149,196 L151,191 L150,187 L155,173 L161,176 L164,164 L169,161 L169,151 L174,147 L178,149 L183,145 L193,147 L203,144 L204,139 L210,135 L210,135 L214,129 L213,122 L219,121 L224,115 L224,108 L236,106 L241,92 L235,87 L227,86 L222,78 L216,79 L212,77 L202,79 L202,69 L208,65 L202,58 L201,54 L206,52 L209,57 L215,60 L223,55 L228,56 L233,59 L242,57 L245,59 L261,61 L270,58 L274,52 L282,49 L291,55 L300,55 L308,52 L316,40 L323,41 L329,48 L332,56 L341,59 L346,73 L357,76 L362,71 L362,80 L358,88 L366,91 L363,102 L365,106 L373,115 L386,115 L387,118 L382,123 L380,129 L377,134 L371,138 L366,137 L362,142 L362,145 L364,149 L362,155 L352,157 L348,160 L336,166 L330,177 L330,182 L334,192 L325,200 L327,204 L320,205 L317,213 L321,220 L320,224 L313,221 L312,221 L312,221 L307,237 L299,239 L292,235 L270,236 L270,241 L265,250 L260,253 L258,258 L250,255 L251,266 L253,271 L250,276 L257,284 L254,290 L256,300 L253,303 L254,309 L276,314 L274,324 L267,328 L263,321 L257,319 L251,324 L246,315 L240,314 L232,309 L229,310 Z" 
        fill="url(#glassGradient)" 
        stroke="rgba(255, 255, 255, 0.6)" 
        stroke-width="2" 
        filter="url(#glassShadow)" />
</svg>