<svg xmlns="http://www.w3.org/2000/svg" viewBox="0 0 500 500" width="500" height="500">

  <defs>
    <linearGradient id="glassGradient" x1="0%" y1="0%" x2="100%" y2="100%">
      <stop offset="0%" stop-color="rgba(0, 200, 100, 0.8)" />
      <stop offset="50%" stop-color="rgba(0, 200, 100, 0.4)" />
      <stop offset="100%" stop-color="rgba(0, 200, 100, 0.2)" />
    </linearGradient>
    
    <filter id="glassShadow" x="-20%" y="-20%" width="140%" height="140%">
      <feDropShadow dx="0" dy="8" stdDeviation="10" flood-color="#000000" flood-opacity="0.15" />
    </filter>
  </defs>

  <path d="M346,312 L344,309 L338,305 L344,301 L333,295 L338,290 L331,281 L335,266 L340,263 L347,266 L355,263 L360,258 L341,259 L331,256 L328,261 L322,257 L320,266 L313,278 L311,285 L313,289 L310,294 L318,302 L313,313 L304,324 L305,330 L286,338 L276,344 L265,347 L260,352 L253,354 L245,357 L235,361 L231,360 L226,360 L220,364 L195,354 L181,344 L171,336 L164,328 L146,308 L124,289 L125,285 L123,288 L114,280 L97,262 L95,257 L100,248 L110,255 L111,263 L122,257 L132,255 L135,253 L140,253 L149,250 L156,247 L164,242 L174,241 L180,234 L180,230 L185,227 L192,218 L195,222 L198,216 L202,210 L211,204 L213,199 L199,200 L193,197 L186,197 L176,207 L171,217 L160,218 L150,223 L142,225 L127,224 L108,220 L75,200 L68,193 L70,188 L60,184 L61,179 L55,179 L54,173 L43,172 L40,167 L45,166 L47,154 L56,148 L83,147 L84,126 L89,130 L96,126 L100,131 L106,127 L112,130 L120,127 L132,128 L139,126 L148,134 L167,134 L173,126 L203,118 L203,129 L209,131 L219,131 L223,126 L230,121 L235,122 L238,117 L231,116 L230,106 L239,101 L244,103 L250,105 L256,104 L263,101 L271,101 L275,103 L284,101 L292,101 L301,98 L308,104 L319,104 L321,108 L330,118 L332,112 L342,115 L345,121 L361,122 L363,114 L369,113 L368,119 L373,122 L368,133 L372,137 L377,140 L379,145 L384,142 L390,143 L391,150 L388,152 L388,158 L395,165 L398,171 L401,168 L407,171 L405,182 L413,182 L418,183 L422,189 L427,186 L428,189 L439,194 L438,200 L446,199 L450,208 L455,218 L460,218 L460,224 L456,229 L454,236 L447,235 L439,243 L433,241 L437,250 L444,248 L442,256 L434,254 L433,258 L437,264 L437,271 L436,276 L439,281 L425,286 L417,288 L418,293 L421,296 L417,301 L418,309 L428,309 L428,309 L440,306 L447,306 L451,311 L443,313 L432,314 L427,317 L425,324 L418,326 L417,332 L407,333 L412,338 L416,342 L417,343 L419,344 L419,344 L422,348 L425,354 L424,362 L421,361 L419,368 L412,372 L406,372 L404,368 L395,362 L390,368 L395,371 L394,377 L390,384 L391,396 L383,396 L380,401 L377,402 L372,396 L374,390 L366,388 L359,390 L361,396 L355,395 L348,401 L346,393 L349,387 L352,385 L356,379 L357,371 L354,360 L345,340 L347,339 L338,337 L339,330 L337,323 L341,321 L343,313 L346,312 Z M321,291 L318,288 L317,280 L322,276 L326,282 L321,291 Z" 
        fill="url(#glassGradient)" 
        stroke="rgba(255, 255, 255, 0.6)" 
        stroke-width="2" 
        filter="url(#glassShadow)" />
</svg>