<svg xmlns="http://www.w3.org/2000/svg" viewBox="0 0 500 500" width="500" height="500">

  <defs>
    <linearGradient id="glassGradient" x1="0%" y1="0%" x2="100%" y2="100%">
      <stop offset="0%" stop-color="rgba(0, 200, 100, 0.8)" />
      <stop offset="50%" stop-color="rgba(0, 200, 100, 0.4)" />
      <stop offset="100%" stop-color="rgba(0, 200, 100, 0.2)" />
    </linearGradient>
    
    <filter id="glassShadow" x="-20%" y="-20%" width="140%" height="140%">
      <feDropShadow dx="0" dy="8" stdDeviation="10" flood-color="#000000" flood-opacity="0.15" />
    </filter>
  </defs>

  <path d="M403,305 L391,304 L371,310 L368,312 L371,325 L369,329 L361,334 L355,344 L360,350 L376,345 L388,349 L391,352 L398,363 L408,353 L420,348 L440,367 L440,389 L437,404 L445,417 L444,425 L430,434 L420,435 L412,441 L381,439 L372,460 L361,450 L368,436 L366,416 L371,397 L356,387 L349,396 L335,404 L332,414 L316,419 L316,411 L286,392 L292,399 L287,413 L280,407 L267,416 L268,428 L275,437 L269,441 L256,436 L242,434 L237,425 L242,424 L247,408 L246,399 L253,387 L232,365 L203,348 L197,338 L189,336 L184,308 L178,296 L185,290 L174,279 L167,278 L169,252 L161,249 L148,252 L127,257 L123,249 L112,250 L109,239 L97,234 L89,239 L65,239 L63,227 L68,217 L62,213 L67,189 L50,190 L50,181 L60,174 L55,165 L71,168 L79,160 L92,158 L107,163 L116,174 L132,179 L141,177 L148,189 L138,200 L156,214 L161,196 L176,182 L192,190 L210,181 L217,180 L239,192 L252,190 L259,181 L274,178 L268,166 L279,145 L299,138 L306,144 L320,144 L328,138 L329,138 L318,126 L338,115 L343,101 L364,102 L362,99 L363,98 L366,78 L353,69 L354,59 L355,49 L346,40 L358,44 L364,41 L378,60 L397,68 L397,79 L391,84 L402,94 L428,102 L443,100 L450,108 L450,117 L434,136 L404,165 L398,182 L391,189 L395,197 L389,204 L392,224 L392,241 L395,248 L394,265 L397,282 L405,297 L403,305 Z" 
        fill="url(#glassGradient)" 
        stroke="rgba(255, 255, 255, 0.6)" 
        stroke-width="2" 
        filter="url(#glassShadow)" />
</svg>