<svg xmlns="http://www.w3.org/2000/svg" viewBox="0 0 500 500" width="500" height="500">

  <defs>
    <linearGradient id="glassGradient" x1="0%" y1="0%" x2="100%" y2="100%">
      <stop offset="0%" stop-color="rgba(0, 200, 100, 0.8)" />
      <stop offset="50%" stop-color="rgba(0, 200, 100, 0.4)" />
      <stop offset="100%" stop-color="rgba(0, 200, 100, 0.2)" />
    </linearGradient>
    
    <filter id="glassShadow" x="-20%" y="-20%" width="140%" height="140%">
      <feDropShadow dx="0" dy="8" stdDeviation="10" flood-color="#000000" flood-opacity="0.15" />
    </filter>
  </defs>

  <path d="M374,315 L366,322 L349,327 L332,329 L319,337 L315,347 L312,368 L299,379 L313,405 L313,411 L284,424 L284,427 L277,419 L263,421 L238,413 L228,404 L234,399 L233,389 L216,381 L202,363 L197,366 L185,362 L180,358 L166,350 L169,325 L162,317 L151,317 L143,310 L138,300 L125,313 L114,313 L104,289 L92,273 L85,254 L85,245 L78,233 L47,218 L40,217 L40,216 L48,210 L45,196 L61,192 L74,178 L81,179 L69,164 L79,149 L80,135 L65,118 L71,113 L84,120 L100,109 L103,103 L117,101 L126,91 L140,81 L160,78 L169,84 L182,82 L185,73 L190,84 L199,89 L204,101 L214,105 L231,107 L246,120 L254,127 L263,119 L270,122 L287,111 L304,108 L313,115 L328,138 L326,142 L338,151 L348,150 L353,143 L363,145 L384,134 L386,151 L374,157 L385,163 L392,172 L402,176 L395,184 L395,193 L411,201 L409,208 L419,218 L432,228 L423,255 L430,267 L440,275 L426,284 L434,296 L428,305 L433,313 L444,315 L457,329 L460,337 L445,338 L436,326 L419,326 L411,322 L395,326 L381,315 L374,315 Z" 
        fill="url(#glassGradient)" 
        stroke="rgba(255, 255, 255, 0.6)" 
        stroke-width="2" 
        filter="url(#glassShadow)" />
</svg>