<svg xmlns="http://www.w3.org/2000/svg" viewBox="0 0 500 500" width="500" height="500">

  <defs>
    <linearGradient id="glassGradient" x1="0%" y1="0%" x2="100%" y2="100%">
      <stop offset="0%" stop-color="rgba(0, 200, 100, 0.8)" />
      <stop offset="50%" stop-color="rgba(0, 200, 100, 0.4)" />
      <stop offset="100%" stop-color="rgba(0, 200, 100, 0.2)" />
    </linearGradient>
    
    <filter id="glassShadow" x="-20%" y="-20%" width="140%" height="140%">
      <feDropShadow dx="0" dy="8" stdDeviation="10" flood-color="#000000" flood-opacity="0.15" />
    </filter>
  </defs>

  <path d="M431,196 L430,204 L413,221 L403,216 L394,217 L400,228 L394,232 L385,232 L381,236 L365,230 L355,234 L357,240 L355,246 L347,246 L326,252 L315,261 L310,272 L298,267 L297,259 L290,258 L286,264 L272,266 L269,271 L272,278 L266,285 L272,294 L286,296 L304,310 L328,310 L322,316 L320,329 L333,336 L340,341 L342,348 L352,348 L355,356 L352,362 L359,364 L358,371 L348,381 L333,373 L327,369 L321,372 L315,369 L308,360 L293,356 L288,350 L279,356 L284,362 L285,370 L280,378 L285,383 L283,390 L273,402 L263,402 L259,394 L253,395 L228,385 L216,393 L213,399 L208,394 L194,389 L199,377 L198,356 L188,360 L174,359 L169,362 L149,362 L140,368 L127,369 L119,366 L111,357 L102,352 L102,348 L108,342 L115,343 L122,338 L127,330 L130,323 L137,316 L135,312 L117,311 L107,299 L104,294 L108,279 L97,275 L102,264 L102,252 L95,258 L80,254 L74,235 L62,231 L57,221 L49,211 L40,210 L47,195 L45,190 L46,174 L56,171 L75,173 L89,171 L95,169 L102,161 L109,171 L124,171 L130,174 L132,183 L143,188 L146,193 L154,183 L174,171 L181,177 L183,185 L194,181 L200,185 L218,172 L222,173 L225,169 L241,171 L253,165 L252,159 L258,145 L273,149 L276,152 L287,148 L294,156 L294,164 L310,168 L307,177 L314,178 L323,185 L328,173 L338,164 L341,167 L351,163 L365,169 L369,162 L378,162 L383,142 L387,139 L386,126 L389,123 L400,120 L403,108 L416,111 L423,98 L436,100 L437,105 L443,106 L444,115 L445,120 L459,131 L460,135 L454,141 L449,151 L455,153 L454,168 L445,166 L446,184 L437,195 L431,196 Z" 
        fill="url(#glassGradient)" 
        stroke="rgba(255, 255, 255, 0.6)" 
        stroke-width="2" 
        filter="url(#glassShadow)" />
</svg>