<svg xmlns="http://www.w3.org/2000/svg" viewBox="0 0 500 500" width="500" height="500">

  <defs>
    <linearGradient id="glassGradient" x1="0%" y1="0%" x2="100%" y2="100%">
      <stop offset="0%" stop-color="rgba(0, 200, 100, 0.8)" />
      <stop offset="50%" stop-color="rgba(0, 200, 100, 0.4)" />
      <stop offset="100%" stop-color="rgba(0, 200, 100, 0.2)" />
    </linearGradient>
    
    <filter id="glassShadow" x="-20%" y="-20%" width="140%" height="140%">
      <feDropShadow dx="0" dy="8" stdDeviation="10" flood-color="#000000" flood-opacity="0.15" />
    </filter>
  </defs>

  <path d="M308,165 L316,167 L321,166 L327,169 L321,176 L322,194 L306,192 L295,195 L292,200 L296,211 L293,212 L293,224 L295,231 L300,233 L298,237 L300,243 L298,249 L290,250 L278,245 L276,252 L283,253 L281,264 L277,271 L276,276 L279,280 L285,282 L284,291 L291,298 L298,299 L299,292 L313,296 L316,292 L320,295 L322,303 L315,302 L315,311 L317,316 L315,318 L310,311 L301,312 L292,309 L291,300 L284,302 L288,307 L287,311 L293,317 L289,323 L295,328 L300,324 L302,320 L311,323 L317,322 L320,327 L319,332 L329,327 L339,324 L341,318 L350,315 L352,320 L359,321 L360,326 L360,330 L365,335 L364,339 L372,337 L377,338 L375,343 L374,352 L379,355 L388,357 L384,370 L381,375 L374,377 L371,382 L368,382 L366,388 L360,387 L356,383 L351,384 L348,380 L344,382 L342,382 L339,389 L336,394 L328,394 L327,404 L330,405 L328,413 L325,417 L320,420 L322,423 L328,422 L337,426 L338,428 L334,433 L332,438 L321,439 L317,449 L309,447 L298,449 L292,447 L285,448 L281,456 L281,460 L276,459 L264,458 L261,453 L255,455 L255,450 L249,450 L242,444 L236,444 L236,436 L230,439 L225,439 L221,438 L217,432 L207,426 L203,426 L198,417 L193,417 L194,412 L190,410 L194,405 L185,403 L175,393 L167,390 L160,389 L157,383 L154,369 L151,355 L148,335 L142,317 L138,313 L136,301 L134,299 L131,287 L128,281 L123,274 L123,268 L114,264 L112,257 L119,256 L125,249 L123,245 L126,240 L123,236 L127,234 L127,229 L124,227 L122,221 L124,219 L121,210 L114,211 L114,207 L120,203 L121,205 L128,204 L130,196 L135,187 L130,185 L136,181 L136,174 L130,174 L126,170 L127,162 L126,156 L140,151 L142,156 L145,154 L149,146 L159,142 L163,142 L162,137 L174,131 L179,138 L184,137 L185,131 L189,131 L197,129 L201,130 L209,130 L209,121 L206,118 L208,112 L205,110 L203,105 L207,99 L218,106 L223,104 L225,109 L234,108 L243,106 L253,109 L252,102 L250,100 L250,92 L256,89 L259,88 L261,82 L270,84 L271,87 L273,81 L278,78 L275,73 L277,75 L286,72 L285,67 L288,65 L286,60 L288,56 L295,58 L306,44 L307,41 L310,40 L316,43 L316,49 L319,51 L325,49 L328,50 L325,55 L327,61 L324,64 L331,69 L327,73 L324,81 L319,86 L318,93 L319,93 L321,94 L333,97 L322,102 L320,107 L314,115 L313,119 L319,122 L321,126 L319,131 L319,136 L320,141 L317,146 L319,152 L316,158 L306,161 L308,165 Z" 
        fill="url(#glassGradient)" 
        stroke="rgba(255, 255, 255, 0.6)" 
        stroke-width="2" 
        filter="url(#glassShadow)" />
</svg>