<svg xmlns="http://www.w3.org/2000/svg" viewBox="0 0 500 500" width="500" height="500">

  <defs>
    <linearGradient id="glassGradient" x1="0%" y1="0%" x2="100%" y2="100%">
      <stop offset="0%" stop-color="rgba(0, 200, 100, 0.8)" />
      <stop offset="50%" stop-color="rgba(0, 200, 100, 0.4)" />
      <stop offset="100%" stop-color="rgba(0, 200, 100, 0.2)" />
    </linearGradient>
    
    <filter id="glassShadow" x="-20%" y="-20%" width="140%" height="140%">
      <feDropShadow dx="0" dy="8" stdDeviation="10" flood-color="#000000" flood-opacity="0.15" />
    </filter>
  </defs>

  <path d="M277,142 L273,149 L259,156 L281,169 L289,172 L286,180 L279,186 L296,187 L304,183 L303,190 L308,198 L299,211 L315,218 L323,226 L316,243 L314,260 L316,268 L321,275 L322,276 L322,276 L330,279 L336,275 L340,270 L348,266 L358,278 L356,288 L356,297 L351,311 L354,318 L347,336 L357,340 L361,337 L369,344 L363,354 L358,365 L356,379 L350,387 L345,393 L349,400 L355,405 L350,415 L347,418 L357,433 L356,440 L341,460 L327,448 L303,418 L301,414 L289,403 L282,382 L270,357 L267,348 L264,319 L253,282 L257,281 L253,282 L247,264 L233,235 L229,225 L221,194 L209,165 L201,160 L195,139 L194,139 L193,139 L179,125 L177,125 L167,111 L162,111 L159,103 L147,75 L145,72 L131,40 L142,42 L154,47 L170,62 L182,64 L178,73 L183,76 L182,84 L189,84 L197,97 L203,97 L218,106 L225,116 L231,117 L238,118 L248,113 L248,125 L257,124 L267,135 L276,134 L277,142 Z M195,137 L194,136 L194,138 L195,137 Z" 
        fill="url(#glassGradient)" 
        stroke="rgba(255, 255, 255, 0.6)" 
        stroke-width="2" 
        filter="url(#glassShadow)" />
</svg>