<svg xmlns="http://www.w3.org/2000/svg" viewBox="0 0 500 500" width="500" height="500">

  <defs>
    <linearGradient id="glassGradient" x1="0%" y1="0%" x2="100%" y2="100%">
      <stop offset="0%" stop-color="rgba(0, 200, 100, 0.8)" />
      <stop offset="50%" stop-color="rgba(0, 200, 100, 0.4)" />
      <stop offset="100%" stop-color="rgba(0, 200, 100, 0.2)" />
    </linearGradient>
    
    <filter id="glassShadow" x="-20%" y="-20%" width="140%" height="140%">
      <feDropShadow dx="0" dy="8" stdDeviation="10" flood-color="#000000" flood-opacity="0.15" />
    </filter>
  </defs>

  <path d="M194,269 L193,267 L190,265 L192,260 L186,254 L180,253 L174,254 L169,252 L159,252 L152,248 L149,247 L136,246 L141,245 L144,242 L150,241 L151,234 L145,228 L140,231 L133,232 L127,229 L108,221 L105,223 L103,215 L108,209 L108,206 L99,203 L87,204 L73,196 L74,189 L70,187 L61,189 L60,187 L49,189 L40,185 L43,179 L40,176 L43,166 L53,164 L59,160 L59,156 L65,156 L71,148 L72,143 L82,142 L89,140 L103,144 L109,142 L112,138 L104,135 L102,131 L113,132 L122,137 L127,135 L128,132 L133,133 L142,127 L148,127 L151,124 L157,122 L159,125 L164,125 L169,132 L174,128 L178,130 L184,125 L192,124 L192,128 L196,129 L199,137 L206,139 L213,149 L223,153 L231,155 L241,162 L246,161 L250,164 L253,169 L259,171 L262,170 L266,176 L270,178 L266,183 L271,189 L277,192 L287,191 L290,195 L304,199 L306,203 L304,206 L314,209 L320,209 L325,207 L329,209 L333,203 L337,203 L342,205 L345,198 L349,195 L355,195 L357,192 L363,193 L370,188 L379,188 L386,186 L390,189 L396,189 L399,186 L400,182 L409,181 L411,186 L435,192 L442,189 L448,198 L458,202 L460,209 L454,222 L452,225 L452,234 L446,244 L446,250 L439,251 L435,251 L430,254 L431,262 L420,261 L416,263 L420,273 L416,277 L415,281 L408,286 L399,285 L396,287 L390,285 L383,289 L388,299 L391,301 L394,309 L388,309 L384,311 L385,319 L388,324 L394,326 L401,326 L413,328 L409,337 L411,344 L419,354 L422,356 L413,367 L406,364 L399,370 L396,370 L395,375 L390,375 L388,378 L381,372 L376,366 L376,361 L370,361 L359,365 L356,368 L351,365 L357,362 L356,355 L346,360 L342,359 L340,362 L336,362 L330,359 L331,357 L324,347 L321,344 L313,345 L306,350 L303,348 L299,352 L296,349 L289,343 L281,343 L277,340 L275,335 L271,333 L269,328 L254,314 L244,311 L242,307 L241,302 L236,299 L229,292 L228,288 L220,289 L210,280 L205,277 L200,276 L195,273 L194,269 Z" 
        fill="url(#glassGradient)" 
        stroke="rgba(255, 255, 255, 0.6)" 
        stroke-width="2" 
        filter="url(#glassShadow)" />
</svg>