<svg xmlns="http://www.w3.org/2000/svg" viewBox="0 0 500 500" width="500" height="500">

  <defs>
    <linearGradient id="glassGradient" x1="0%" y1="0%" x2="100%" y2="100%">
      <stop offset="0%" stop-color="rgba(0, 200, 100, 0.8)" />
      <stop offset="50%" stop-color="rgba(0, 200, 100, 0.4)" />
      <stop offset="100%" stop-color="rgba(0, 200, 100, 0.2)" />
    </linearGradient>
    
    <filter id="glassShadow" x="-20%" y="-20%" width="140%" height="140%">
      <feDropShadow dx="0" dy="8" stdDeviation="10" flood-color="#000000" flood-opacity="0.15" />
    </filter>
  </defs>

  <path d="M115,374 L104,374 L96,373 L91,370 L88,365 L79,362 L75,363 L65,361 L62,358 L63,349 L59,346 L58,343 L51,348 L44,347 L42,344 L43,340 L43,334 L40,330 L41,328 L47,329 L48,323 L43,324 L40,318 L45,320 L50,314 L56,314 L57,310 L60,305 L60,301 L56,302 L53,294 L56,291 L62,293 L73,286 L63,281 L65,276 L74,271 L78,270 L82,265 L83,260 L81,255 L84,247 L80,240 L81,239 L79,237 L74,237 L75,232 L78,228 L77,226 L71,226 L75,221 L74,217 L76,213 L80,218 L85,215 L84,212 L79,210 L77,206 L81,204 L83,208 L87,208 L91,207 L91,202 L95,199 L102,200 L102,203 L94,213 L107,216 L112,215 L115,216 L123,212 L125,217 L130,223 L129,227 L123,227 L120,230 L124,237 L121,242 L125,246 L119,250 L110,247 L108,253 L112,256 L113,259 L118,261 L123,255 L130,254 L135,246 L139,244 L139,239 L144,239 L149,237 L158,239 L161,239 L164,236 L166,240 L172,243 L176,242 L178,239 L175,236 L173,232 L174,228 L172,223 L175,222 L180,227 L185,222 L183,215 L179,212 L174,213 L172,210 L179,207 L175,203 L175,199 L181,197 L185,198 L190,195 L194,195 L196,197 L200,195 L201,190 L199,181 L196,180 L193,183 L192,185 L185,185 L179,187 L174,185 L170,185 L165,184 L162,181 L158,175 L157,169 L160,161 L164,157 L168,158 L171,155 L174,151 L177,148 L181,147 L187,143 L194,140 L199,135 L202,133 L207,133 L217,127 L221,126 L225,121 L229,119 L234,120 L235,115 L240,113 L246,111 L248,114 L255,116 L267,116 L271,119 L277,121 L277,125 L284,132 L284,137 L277,143 L278,149 L275,151 L274,155 L272,157 L266,166 L268,171 L264,172 L261,174 L251,173 L249,175 L249,178 L248,179 L246,179 L246,180 L246,181 L246,185 L248,191 L251,195 L247,196 L245,197 L245,197 L246,200 L237,207 L238,208 L242,217 L242,227 L247,231 L245,233 L248,236 L253,230 L257,232 L263,238 L268,240 L276,232 L277,229 L276,228 L273,227 L275,222 L272,218 L265,220 L267,215 L266,207 L262,206 L260,203 L260,197 L256,191 L254,188 L261,182 L266,184 L264,179 L272,176 L274,177 L271,182 L275,184 L271,192 L271,193 L274,191 L280,190 L283,195 L289,195 L293,194 L292,192 L291,192 L291,189 L290,188 L291,185 L294,185 L298,189 L296,193 L297,196 L301,197 L304,193 L309,195 L313,194 L317,196 L318,191 L327,184 L330,184 L336,182 L340,182 L340,187 L345,189 L346,192 L342,195 L339,198 L338,200 L342,200 L344,197 L348,202 L349,199 L354,196 L359,198 L360,195 L366,192 L367,198 L365,199 L366,204 L370,202 L375,203 L379,205 L381,205 L386,198 L386,193 L392,194 L397,194 L399,192 L403,193 L405,198 L411,201 L416,201 L418,208 L426,210 L431,211 L435,220 L441,220 L441,217 L446,216 L453,215 L455,218 L458,218 L459,221 L457,225 L455,230 L458,231 L457,241 L453,243 L460,251 L454,253 L451,256 L445,259 L434,257 L431,256 L425,258 L421,255 L417,255 L412,258 L408,256 L405,252 L402,254 L402,257 L406,262 L403,265 L402,272 L409,270 L412,272 L417,271 L420,277 L426,278 L431,282 L427,292 L418,293 L419,297 L414,302 L410,303 L411,308 L408,312 L408,312 L404,315 L403,319 L396,321 L389,319 L385,323 L382,321 L378,324 L379,331 L375,333 L373,342 L369,339 L365,350 L366,353 L364,356 L361,356 L359,361 L360,370 L357,377 L355,377 L350,374 L345,371 L343,367 L338,363 L331,363 L328,366 L321,367 L313,364 L303,367 L302,364 L301,360 L296,360 L288,358 L288,361 L281,364 L276,363 L273,364 L272,369 L257,369 L254,367 L250,369 L249,365 L246,364 L240,366 L238,369 L231,372 L224,374 L220,373 L208,374 L205,375 L203,366 L209,367 L207,359 L204,356 L195,356 L191,359 L184,358 L183,359 L182,360 L182,360 L181,359 L177,364 L174,363 L171,366 L171,370 L163,377 L165,379 L163,384 L157,383 L156,385 L152,389 L141,389 L141,380 L138,375 L133,375 L115,374 Z" 
        fill="url(#glassGradient)" 
        stroke="rgba(255, 255, 255, 0.6)" 
        stroke-width="2" 
        filter="url(#glassShadow)" />
</svg>