<svg xmlns="http://www.w3.org/2000/svg" viewBox="0 0 500 500" width="500" height="500">

  <defs>
    <linearGradient id="glassGradient" x1="0%" y1="0%" x2="100%" y2="100%">
      <stop offset="0%" stop-color="rgba(0, 200, 100, 0.8)" />
      <stop offset="50%" stop-color="rgba(0, 200, 100, 0.4)" />
      <stop offset="100%" stop-color="rgba(0, 200, 100, 0.2)" />
    </linearGradient>
    
    <filter id="glassShadow" x="-20%" y="-20%" width="140%" height="140%">
      <feDropShadow dx="0" dy="8" stdDeviation="10" flood-color="#000000" flood-opacity="0.15" />
    </filter>
  </defs>

  <path d="M405,211 L401,210 L387,215 L382,211 L376,211 L373,217 L368,214 L360,213 L361,207 L356,206 L355,202 L342,199 L334,199 L332,196 L328,194 L331,201 L330,204 L326,206 L328,210 L328,216 L323,219 L322,225 L321,229 L315,227 L310,223 L305,225 L305,232 L302,237 L304,246 L310,249 L304,251 L302,257 L299,258 L299,263 L292,264 L291,269 L288,273 L290,277 L285,278 L282,276 L283,272 L278,269 L275,270 L274,273 L265,284 L259,282 L257,286 L259,290 L257,291 L257,296 L250,298 L248,297 L251,301 L247,303 L245,308 L244,306 L237,304 L235,309 L232,310 L227,312 L227,319 L229,321 L230,327 L222,324 L214,326 L207,326 L205,322 L201,324 L192,318 L189,323 L190,327 L193,329 L191,334 L194,337 L193,344 L187,344 L183,343 L177,345 L174,345 L173,350 L169,351 L164,345 L155,350 L155,354 L152,354 L144,357 L141,364 L138,366 L136,361 L125,366 L125,371 L125,377 L128,380 L133,381 L133,386 L128,390 L132,392 L128,399 L126,406 L121,407 L119,405 L115,408 L115,412 L108,414 L105,407 L102,406 L93,408 L88,398 L84,397 L79,380 L76,375 L75,367 L76,362 L73,357 L74,353 L72,348 L73,344 L72,337 L69,329 L70,326 L67,323 L67,313 L60,293 L56,285 L56,279 L59,278 L53,274 L52,268 L54,264 L50,256 L51,251 L49,248 L48,246 L49,238 L47,234 L47,227 L47,225 L43,213 L43,208 L40,198 L40,193 L44,191 L43,186 L46,183 L51,178 L56,179 L56,183 L65,186 L68,184 L70,184 L73,179 L79,179 L78,170 L81,165 L82,160 L78,158 L82,153 L89,158 L91,161 L96,161 L100,158 L102,153 L104,153 L106,147 L103,142 L101,139 L101,139 L99,138 L98,137 L95,135 L92,131 L99,130 L100,125 L106,124 L106,119 L111,116 L119,115 L125,114 L123,110 L117,110 L108,112 L108,112 L100,112 L99,106 L103,103 L100,100 L99,96 L105,94 L116,90 L123,91 L131,86 L132,90 L135,92 L134,102 L138,105 L148,108 L153,107 L162,110 L165,115 L170,118 L179,120 L191,119 L210,120 L215,120 L219,126 L219,135 L230,135 L235,131 L235,129 L242,130 L244,125 L242,122 L250,115 L250,110 L254,108 L257,109 L261,104 L262,104 L263,104 L264,103 L265,103 L272,104 L276,100 L286,100 L289,103 L291,112 L285,111 L286,120 L290,119 L302,118 L307,119 L314,117 L321,113 L324,111 L330,109 L334,110 L335,114 L338,112 L342,114 L358,113 L359,109 L362,107 L367,108 L375,106 L375,102 L383,105 L389,105 L389,109 L391,111 L401,108 L410,112 L418,111 L421,108 L428,107 L434,112 L436,116 L441,119 L446,123 L448,122 L446,127 L438,130 L437,134 L438,143 L442,142 L443,148 L444,156 L441,160 L446,160 L444,170 L446,173 L435,177 L436,183 L440,183 L442,185 L441,193 L438,199 L442,199 L443,202 L449,205 L451,209 L460,214 L458,222 L453,226 L446,225 L444,221 L439,224 L434,231 L431,233 L431,237 L428,244 L432,249 L428,253 L428,255 L420,257 L415,253 L410,250 L412,248 L411,239 L407,236 L411,233 L413,221 L412,217 L407,215 L405,211 Z" 
        fill="url(#glassGradient)" 
        stroke="rgba(255, 255, 255, 0.6)" 
        stroke-width="2" 
        filter="url(#glassShadow)" />
</svg>