<svg xmlns="http://www.w3.org/2000/svg" viewBox="0 0 500 500" width="500" height="500">

  <defs>
    <linearGradient id="glassGradient" x1="0%" y1="0%" x2="100%" y2="100%">
      <stop offset="0%" stop-color="rgba(0, 200, 100, 0.8)" />
      <stop offset="50%" stop-color="rgba(0, 200, 100, 0.4)" />
      <stop offset="100%" stop-color="rgba(0, 200, 100, 0.2)" />
    </linearGradient>
    
    <filter id="glassShadow" x="-20%" y="-20%" width="140%" height="140%">
      <feDropShadow dx="0" dy="8" stdDeviation="10" flood-color="#000000" flood-opacity="0.15" />
    </filter>
  </defs>

  <path d="M439,158 L458,158 L460,176 L447,211 L433,223 L433,243 L413,254 L410,270 L372,305 L380,319 L352,367 L343,395 L340,414 L324,439 L320,459 L287,440 L258,434 L238,440 L222,421 L194,420 L166,436 L145,405 L136,402 L106,418 L95,411 L40,395 L51,367 L48,324 L57,293 L67,287 L66,254 L72,230 L87,233 L105,205 L104,192 L128,156 L136,128 L157,112 L165,127 L190,138 L204,111 L237,75 L227,57 L268,52 L285,50 L309,61 L328,55 L333,67 L360,65 L382,58 L399,41 L414,47 L415,65 L444,79 L420,134 L439,158 Z" 
        fill="url(#glassGradient)" 
        stroke="rgba(255, 255, 255, 0.6)" 
        stroke-width="2" 
        filter="url(#glassShadow)" />
</svg>