<svg xmlns="http://www.w3.org/2000/svg" viewBox="0 0 500 500" width="500" height="500">

  <defs>
    <linearGradient id="glassGradient" x1="0%" y1="0%" x2="100%" y2="100%">
      <stop offset="0%" stop-color="rgba(0, 200, 100, 0.8)" />
      <stop offset="50%" stop-color="rgba(0, 200, 100, 0.4)" />
      <stop offset="100%" stop-color="rgba(0, 200, 100, 0.2)" />
    </linearGradient>
    
    <filter id="glassShadow" x="-20%" y="-20%" width="140%" height="140%">
      <feDropShadow dx="0" dy="8" stdDeviation="10" flood-color="#000000" flood-opacity="0.15" />
    </filter>
  </defs>

  <path d="M336,121 L340,120 L343,126 L350,126 L358,117 L360,112 L356,108 L360,102 L359,96 L355,91 L362,87 L366,91 L377,94 L382,101 L387,103 L392,101 L396,104 L408,110 L415,118 L424,119 L429,122 L427,131 L434,134 L434,130 L443,127 L444,135 L446,139 L457,141 L460,152 L455,156 L442,157 L437,159 L423,169 L417,179 L416,187 L425,204 L424,208 L417,209 L413,212 L417,209 L428,210 L430,214 L412,226 L408,231 L411,240 L405,245 L394,250 L383,264 L373,270 L350,276 L335,280 L313,291 L300,300 L294,306 L287,310 L276,321 L272,327 L268,324 L263,326 L260,330 L255,328 L249,335 L250,337 L242,347 L235,346 L226,349 L222,345 L212,345 L205,331 L202,332 L203,338 L196,325 L193,325 L184,330 L182,335 L175,331 L173,334 L179,341 L165,349 L160,347 L151,359 L154,363 L152,369 L156,373 L148,376 L143,375 L137,370 L135,377 L122,382 L123,376 L115,364 L111,367 L107,372 L108,376 L103,388 L106,389 L104,398 L99,401 L93,397 L84,396 L80,400 L68,404 L62,409 L55,413 L40,413 L40,408 L46,402 L46,397 L49,390 L49,384 L58,377 L64,376 L66,372 L75,362 L75,355 L88,350 L93,347 L94,339 L99,337 L96,324 L93,318 L95,302 L90,302 L89,296 L84,297 L86,289 L86,277 L81,277 L79,273 L73,270 L71,266 L73,259 L73,259 L78,256 L83,260 L86,259 L94,264 L100,265 L105,274 L112,269 L118,271 L123,278 L130,275 L131,264 L109,259 L108,253 L111,249 L109,239 L112,233 L105,224 L108,219 L106,215 L105,203 L113,206 L115,200 L120,198 L126,188 L126,183 L148,182 L156,186 L164,184 L169,168 L169,168 L170,168 L178,170 L178,166 L174,159 L177,151 L184,150 L182,146 L191,137 L188,127 L188,122 L194,111 L206,105 L210,101 L220,99 L223,93 L220,89 L227,92 L233,99 L240,101 L249,101 L256,95 L271,96 L275,94 L286,94 L293,91 L294,107 L291,117 L301,120 L305,124 L308,119 L316,114 L336,121 Z" 
        fill="url(#glassGradient)" 
        stroke="rgba(255, 255, 255, 0.6)" 
        stroke-width="2" 
        filter="url(#glassShadow)" />
</svg>