<svg xmlns="http://www.w3.org/2000/svg" viewBox="0 0 500 500" width="500" height="500">

  <defs>
    <linearGradient id="glassGradient" x1="0%" y1="0%" x2="100%" y2="100%">
      <stop offset="0%" stop-color="rgba(0, 200, 100, 0.8)" />
      <stop offset="50%" stop-color="rgba(0, 200, 100, 0.4)" />
      <stop offset="100%" stop-color="rgba(0, 200, 100, 0.2)" />
    </linearGradient>
    
    <filter id="glassShadow" x="-20%" y="-20%" width="140%" height="140%">
      <feDropShadow dx="0" dy="8" stdDeviation="10" flood-color="#000000" flood-opacity="0.15" />
    </filter>
  </defs>

  <path d="M310,47 L323,63 L315,62 L301,77 L282,82 L286,98 L277,104 L277,106 L285,106 L320,124 L327,137 L327,147 L335,168 L349,186 L360,213 L372,213 L386,198 L392,210 L401,218 L413,217 L421,226 L418,255 L433,264 L440,268 L449,278 L448,289 L430,288 L434,297 L447,299 L460,309 L457,330 L456,331 L458,334 L436,334 L430,348 L410,359 L421,372 L420,373 L412,379 L397,379 L389,373 L367,381 L356,403 L362,415 L346,419 L339,428 L325,430 L302,417 L294,418 L274,429 L258,419 L242,435 L236,453 L218,439 L228,427 L221,414 L211,416 L194,411 L184,400 L169,394 L154,396 L146,405 L129,401 L118,400 L98,399 L42,396 L43,386 L53,376 L52,366 L51,355 L40,343 L52,334 L52,326 L86,297 L107,270 L139,250 L154,245 L152,237 L127,237 L133,205 L146,192 L141,186 L126,153 L134,150 L136,139 L149,128 L168,122 L183,111 L196,112 L211,106 L219,108 L247,92 L247,80 L242,69 L265,75 L277,65 L289,63 L295,55 L310,47 Z" 
        fill="url(#glassGradient)" 
        stroke="rgba(255, 255, 255, 0.6)" 
        stroke-width="2" 
        filter="url(#glassShadow)" />
</svg>