<svg xmlns="http://www.w3.org/2000/svg" viewBox="0 0 500 500" width="500" height="500">

  <defs>
    <linearGradient id="glassGradient" x1="0%" y1="0%" x2="100%" y2="100%">
      <stop offset="0%" stop-color="rgba(0, 200, 100, 0.8)" />
      <stop offset="50%" stop-color="rgba(0, 200, 100, 0.4)" />
      <stop offset="100%" stop-color="rgba(0, 200, 100, 0.2)" />
    </linearGradient>
    
    <filter id="glassShadow" x="-20%" y="-20%" width="140%" height="140%">
      <feDropShadow dx="0" dy="8" stdDeviation="10" flood-color="#000000" flood-opacity="0.15" />
    </filter>
  </defs>

  <path d="M348,188 L350,191 L355,192 L360,194 L362,192 L359,189 L359,184 L364,181 L367,184 L369,178 L366,176 L377,183 L377,186 L383,184 L384,180 L389,177 L392,174 L398,178 L396,185 L396,192 L394,197 L398,201 L401,193 L413,194 L416,201 L415,207 L420,210 L430,221 L431,224 L426,227 L431,234 L423,237 L418,240 L421,244 L424,241 L434,238 L436,235 L446,237 L452,237 L454,235 L460,236 L458,240 L452,242 L451,248 L447,247 L442,248 L439,254 L435,254 L425,260 L420,261 L417,263 L412,267 L405,270 L399,274 L395,276 L392,278 L389,283 L386,285 L382,284 L378,288 L376,296 L376,303 L380,308 L383,311 L388,312 L392,312 L397,314 L403,312 L410,313 L410,310 L414,307 L417,308 L419,317 L418,322 L414,324 L412,322 L408,322 L403,325 L399,324 L393,326 L393,330 L397,334 L390,337 L392,340 L397,339 L401,342 L403,349 L398,354 L393,349 L390,350 L392,355 L391,358 L393,363 L396,365 L394,369 L390,370 L384,366 L382,363 L379,366 L376,366 L367,364 L362,366 L357,366 L358,371 L353,372 L348,380 L342,382 L337,388 L332,385 L331,382 L326,379 L329,374 L337,377 L344,373 L340,369 L343,364 L338,357 L341,354 L347,354 L348,350 L343,344 L341,339 L333,343 L330,342 L325,343 L312,340 L320,330 L320,327 L313,326 L309,329 L309,334 L305,335 L302,335 L299,331 L295,333 L297,337 L303,339 L303,342 L298,345 L294,340 L293,344 L293,348 L289,352 L295,353 L297,355 L293,359 L292,364 L297,364 L299,365 L298,367 L302,374 L299,382 L301,387 L300,392 L296,397 L293,397 L283,403 L281,408 L291,413 L280,419 L274,418 L271,420 L268,415 L262,415 L262,411 L255,407 L254,405 L251,407 L248,403 L244,402 L238,402 L239,394 L235,392 L233,394 L231,390 L226,384 L226,380 L228,379 L227,374 L223,373 L220,375 L218,372 L214,370 L211,366 L215,359 L212,357 L212,352 L208,353 L206,358 L195,358 L193,353 L185,352 L184,356 L177,349 L176,345 L168,346 L163,342 L156,343 L150,343 L144,345 L142,343 L135,343 L130,346 L126,346 L121,344 L118,343 L109,331 L107,321 L101,314 L96,309 L97,295 L94,294 L90,295 L83,296 L77,294 L69,283 L69,276 L71,273 L73,268 L73,262 L73,254 L67,251 L59,252 L55,251 L51,249 L41,244 L40,241 L41,232 L45,223 L58,213 L61,208 L66,205 L71,194 L75,189 L82,184 L89,183 L93,184 L97,188 L97,193 L101,198 L108,198 L122,192 L131,190 L144,190 L154,186 L155,188 L157,179 L160,174 L167,169 L170,166 L175,152 L180,147 L192,142 L195,139 L205,135 L208,129 L212,125 L222,109 L227,91 L237,88 L247,86 L254,80 L255,83 L251,86 L251,90 L270,91 L277,91 L281,92 L283,95 L279,98 L279,101 L285,101 L283,110 L286,111 L284,115 L285,119 L293,119 L296,117 L301,119 L302,123 L306,123 L308,126 L315,124 L320,123 L323,124 L322,134 L325,134 L329,138 L326,140 L329,144 L330,155 L333,156 L336,160 L346,166 L354,174 L351,178 L352,182 L350,188 L348,188 Z" 
        fill="url(#glassGradient)" 
        stroke="rgba(255, 255, 255, 0.6)" 
        stroke-width="2" 
        filter="url(#glassShadow)" />
</svg>