<svg xmlns="http://www.w3.org/2000/svg" viewBox="0 0 500 500" width="500" height="500">

  <defs>
    <linearGradient id="glassGradient" x1="0%" y1="0%" x2="100%" y2="100%">
      <stop offset="0%" stop-color="rgba(0, 200, 100, 0.8)" />
      <stop offset="50%" stop-color="rgba(0, 200, 100, 0.4)" />
      <stop offset="100%" stop-color="rgba(0, 200, 100, 0.2)" />
    </linearGradient>
    
    <filter id="glassShadow" x="-20%" y="-20%" width="140%" height="140%">
      <feDropShadow dx="0" dy="8" stdDeviation="10" flood-color="#000000" flood-opacity="0.15" />
    </filter>
  </defs>

  <path d="M382,140 L372,155 L370,156 L370,159 L369,163 L364,163 L357,169 L366,172 L366,172 L365,176 L363,189 L363,196 L367,204 L370,223 L369,237 L362,237 L360,242 L367,245 L369,249 L371,285 L370,291 L363,292 L340,289 L334,289 L325,295 L322,302 L324,309 L314,322 L314,322 L314,324 L313,324 L303,337 L299,344 L297,353 L303,362 L309,366 L316,368 L330,366 L328,371 L320,368 L311,369 L303,368 L295,370 L272,379 L260,380 L257,382 L245,391 L241,398 L240,404 L243,408 L238,414 L239,427 L232,437 L226,440 L216,447 L212,453 L196,455 L194,460 L185,459 L169,452 L159,443 L171,427 L172,422 L164,409 L167,407 L171,399 L166,395 L163,389 L167,384 L172,378 L173,366 L177,357 L182,349 L176,343 L172,346 L164,342 L170,328 L168,322 L171,311 L172,303 L173,295 L165,285 L158,289 L155,293 L150,296 L144,293 L144,293 L143,293 L139,287 L137,280 L139,267 L144,253 L138,246 L125,241 L133,230 L128,223 L129,218 L123,221 L109,221 L115,216 L117,209 L110,207 L93,196 L104,190 L107,185 L114,182 L118,189 L133,189 L140,191 L139,186 L144,175 L152,174 L160,177 L174,174 L184,178 L189,164 L203,163 L206,157 L211,151 L208,148 L198,144 L190,145 L187,141 L193,137 L198,132 L200,122 L196,120 L197,109 L208,108 L212,102 L215,93 L218,93 L222,92 L226,96 L232,94 L238,100 L246,102 L251,109 L259,112 L273,100 L274,95 L275,84 L285,79 L296,76 L304,77 L317,82 L322,75 L322,71 L326,74 L338,69 L335,58 L345,57 L345,62 L357,61 L358,66 L365,65 L366,59 L377,55 L384,42 L387,46 L397,46 L401,40 L406,49 L407,62 L404,72 L400,94 L400,100 L394,119 L391,128 L382,140 Z" 
        fill="url(#glassGradient)" 
        stroke="rgba(255, 255, 255, 0.6)" 
        stroke-width="2" 
        filter="url(#glassShadow)" />
</svg>