<svg xmlns="http://www.w3.org/2000/svg" viewBox="0 0 500 500" width="500" height="500">

  <defs>
    <linearGradient id="glassGradient" x1="0%" y1="0%" x2="100%" y2="100%">
      <stop offset="0%" stop-color="rgba(0, 200, 100, 0.8)" />
      <stop offset="50%" stop-color="rgba(0, 200, 100, 0.4)" />
      <stop offset="100%" stop-color="rgba(0, 200, 100, 0.2)" />
    </linearGradient>
    
    <filter id="glassShadow" x="-20%" y="-20%" width="140%" height="140%">
      <feDropShadow dx="0" dy="8" stdDeviation="10" flood-color="#000000" flood-opacity="0.15" />
    </filter>
  </defs>

  <path d="M305,74 L311,81 L319,86 L322,93 L317,118 L310,124 L318,130 L321,148 L316,152 L327,158 L337,167 L353,163 L363,174 L372,172 L390,183 L398,192 L402,205 L403,220 L413,216 L414,223 L426,220 L425,232 L430,258 L437,258 L434,265 L425,260 L416,265 L419,275 L430,287 L460,298 L456,308 L448,307 L446,317 L427,321 L422,318 L416,324 L415,333 L412,336 L397,332 L385,325 L377,333 L362,343 L380,344 L387,349 L383,358 L383,364 L358,353 L356,343 L344,338 L330,343 L329,349 L332,359 L330,367 L319,378 L312,372 L303,369 L292,372 L277,378 L268,380 L265,384 L248,385 L244,391 L243,407 L244,420 L238,422 L225,419 L212,425 L214,431 L195,443 L180,435 L175,439 L161,436 L145,443 L144,447 L136,458 L127,460 L107,453 L98,457 L83,455 L68,451 L67,421 L76,408 L66,404 L58,406 L45,401 L40,395 L58,390 L62,380 L59,369 L64,362 L63,352 L63,345 L67,336 L63,329 L53,324 L54,317 L65,304 L68,296 L86,288 L66,282 L63,281 L61,280 L62,269 L71,260 L76,247 L83,240 L72,231 L77,228 L73,217 L77,209 L72,207 L69,199 L75,191 L77,181 L91,180 L90,169 L96,167 L102,154 L113,150 L102,144 L97,127 L104,115 L104,103 L113,99 L123,106 L136,110 L138,101 L140,90 L150,84 L150,71 L147,63 L154,60 L156,53 L150,40 L158,43 L163,50 L178,50 L205,55 L207,63 L217,66 L215,77 L232,79 L241,87 L248,73 L259,75 L270,82 L298,71 L305,74 Z" 
        fill="url(#glassGradient)" 
        stroke="rgba(255, 255, 255, 0.6)" 
        stroke-width="2" 
        filter="url(#glassShadow)" />
</svg>