<svg xmlns="http://www.w3.org/2000/svg" viewBox="0 0 500 500" width="500" height="500">

  <defs>
    <linearGradient id="glassGradient" x1="0%" y1="0%" x2="100%" y2="100%">
      <stop offset="0%" stop-color="rgba(0, 200, 100, 0.8)" />
      <stop offset="50%" stop-color="rgba(0, 200, 100, 0.4)" />
      <stop offset="100%" stop-color="rgba(0, 200, 100, 0.2)" />
    </linearGradient>
    
    <filter id="glassShadow" x="-20%" y="-20%" width="140%" height="140%">
      <feDropShadow dx="0" dy="8" stdDeviation="10" flood-color="#000000" flood-opacity="0.15" />
    </filter>
  </defs>

  <path d="M254,379 L269,412 L267,434 L244,454 L205,460 L196,451 L187,401 L172,380 L136,376 L119,320 L93,291 L92,251 L111,254 L117,227 L109,214 L131,182 L150,181 L176,165 L220,154 L227,131 L253,143 L251,115 L281,132 L299,152 L304,111 L298,90 L311,78 L338,80 L357,67 L361,40 L377,44 L389,85 L378,104 L399,115 L408,132 L403,167 L406,205 L388,232 L390,255 L366,260 L351,254 L335,278 L302,265 L312,321 L304,336 L283,330 L266,312 L276,351 L254,379 Z" 
        fill="url(#glassGradient)" 
        stroke="rgba(255, 255, 255, 0.6)" 
        stroke-width="2" 
        filter="url(#glassShadow)" />
</svg>