<svg xmlns="http://www.w3.org/2000/svg" viewBox="0 0 500 500" width="500" height="500">

  <defs>
    <linearGradient id="glassGradient" x1="0%" y1="0%" x2="100%" y2="100%">
      <stop offset="0%" stop-color="rgba(0, 200, 100, 0.8)" />
      <stop offset="50%" stop-color="rgba(0, 200, 100, 0.4)" />
      <stop offset="100%" stop-color="rgba(0, 200, 100, 0.2)" />
    </linearGradient>
    
    <filter id="glassShadow" x="-20%" y="-20%" width="140%" height="140%">
      <feDropShadow dx="0" dy="8" stdDeviation="10" flood-color="#000000" flood-opacity="0.15" />
    </filter>
  </defs>

  <path d="M132,131 L139,134 L142,139 L144,139 L148,136 L154,139 L154,142 L160,146 L169,149 L169,152 L178,154 L184,154 L192,152 L199,161 L203,160 L205,155 L208,156 L217,162 L219,167 L227,167 L233,163 L239,166 L242,170 L260,179 L269,182 L271,186 L275,191 L281,192 L284,197 L299,204 L307,210 L311,206 L317,206 L320,209 L325,210 L338,220 L350,217 L353,218 L355,225 L354,230 L365,230 L371,233 L380,232 L386,239 L388,239 L392,234 L391,231 L404,231 L416,237 L417,239 L420,242 L425,248 L423,253 L428,255 L428,264 L440,269 L444,275 L448,278 L441,280 L431,278 L428,283 L420,285 L420,288 L434,292 L435,299 L430,301 L428,308 L442,317 L445,316 L451,320 L460,325 L459,328 L456,331 L444,328 L443,332 L437,332 L433,328 L429,330 L430,334 L421,338 L417,345 L413,347 L411,346 L406,350 L399,352 L389,359 L389,369 L391,382 L397,384 L399,389 L398,394 L397,396 L392,397 L390,408 L392,410 L388,419 L381,430 L374,432 L366,432 L359,427 L350,418 L355,416 L356,405 L353,404 L355,397 L358,393 L357,389 L353,390 L351,386 L343,387 L337,389 L337,392 L330,391 L325,381 L319,380 L310,378 L307,370 L302,369 L295,366 L292,360 L288,359 L285,361 L279,362 L273,360 L272,366 L266,374 L264,375 L259,372 L254,371 L250,373 L248,367 L251,366 L249,359 L242,363 L242,366 L235,364 L230,367 L228,371 L224,365 L221,369 L216,368 L218,366 L221,362 L226,360 L224,356 L219,353 L219,348 L214,347 L208,350 L203,350 L194,359 L193,364 L188,362 L183,363 L178,360 L173,365 L168,363 L168,360 L170,355 L165,351 L161,351 L161,354 L161,356 L162,359 L163,359 L164,361 L159,363 L153,363 L149,357 L142,358 L139,361 L139,359 L144,350 L139,348 L143,342 L139,341 L131,344 L133,350 L127,348 L119,354 L121,357 L126,365 L125,372 L128,375 L133,377 L134,386 L132,392 L139,389 L143,395 L141,400 L145,401 L145,402 L144,406 L135,415 L129,412 L123,405 L118,403 L112,410 L108,407 L111,404 L105,400 L105,388 L101,378 L100,376 L109,369 L109,365 L109,365 L111,364 L115,362 L112,358 L109,351 L109,346 L109,345 L110,344 L112,345 L113,343 L113,340 L115,337 L127,338 L130,336 L135,335 L133,329 L139,318 L142,316 L143,312 L146,309 L145,302 L154,295 L153,289 L145,281 L146,276 L139,274 L134,271 L120,271 L112,268 L110,265 L102,267 L105,262 L98,260 L96,263 L89,264 L77,261 L74,265 L63,268 L59,272 L56,267 L61,263 L71,259 L65,251 L71,248 L70,244 L59,232 L53,228 L54,221 L50,213 L53,210 L58,210 L64,206 L64,202 L61,197 L62,190 L62,181 L53,173 L51,170 L53,168 L52,166 L51,162 L47,159 L46,158 L46,155 L46,154 L47,150 L43,144 L42,137 L43,129 L41,126 L41,119 L40,111 L43,107 L41,104 L44,101 L47,93 L60,81 L67,73 L66,69 L66,68 L71,68 L74,72 L88,77 L82,84 L79,85 L74,96 L80,108 L86,106 L91,113 L97,109 L101,105 L109,101 L118,105 L120,110 L124,115 L135,120 L142,121 L137,126 L132,131 Z" 
        fill="url(#glassGradient)" 
        stroke="rgba(255, 255, 255, 0.6)" 
        stroke-width="2" 
        filter="url(#glassShadow)" />
</svg>