<svg xmlns="http://www.w3.org/2000/svg" viewBox="0 0 500 500" width="500" height="500">

  <defs>
    <linearGradient id="glassGradient" x1="0%" y1="0%" x2="100%" y2="100%">
      <stop offset="0%" stop-color="rgba(0, 200, 100, 0.8)" />
      <stop offset="50%" stop-color="rgba(0, 200, 100, 0.4)" />
      <stop offset="100%" stop-color="rgba(0, 200, 100, 0.2)" />
    </linearGradient>
    
    <filter id="glassShadow" x="-20%" y="-20%" width="140%" height="140%">
      <feDropShadow dx="0" dy="8" stdDeviation="10" flood-color="#000000" flood-opacity="0.15" />
    </filter>
  </defs>

  <path d="M271,451 L264,450 L269,439 L274,440 L274,447 L271,451 Z M337,443 L343,453 L339,456 L337,443 Z M261,409 L263,412 L272,413 L275,419 L266,426 L258,440 L246,449 L237,453 L223,456 L220,444 L208,442 L206,438 L205,430 L195,433 L195,437 L187,433 L190,424 L185,421 L175,420 L167,411 L175,403 L176,397 L170,395 L173,391 L170,384 L162,384 L161,378 L155,374 L144,368 L146,358 L150,353 L131,353 L116,342 L105,341 L100,333 L105,327 L103,321 L105,317 L116,316 L119,311 L125,311 L126,318 L136,322 L140,314 L149,306 L166,301 L173,301 L175,296 L173,291 L181,288 L194,293 L197,290 L205,289 L209,286 L205,277 L212,276 L220,280 L234,267 L235,260 L240,259 L247,250 L246,236 L253,237 L255,225 L250,223 L253,215 L259,210 L258,207 L246,198 L245,194 L245,186 L240,185 L244,185 L248,187 L250,183 L246,179 L244,174 L252,168 L259,165 L266,169 L263,160 L265,153 L259,151 L254,140 L249,139 L248,135 L250,131 L250,131 L251,128 L250,128 L260,120 L267,117 L272,112 L282,106 L279,96 L270,90 L273,83 L275,73 L270,60 L261,48 L264,40 L269,46 L273,48 L282,47 L293,51 L301,43 L306,42 L315,46 L326,48 L326,59 L330,57 L342,65 L342,68 L345,71 L355,71 L363,67 L369,71 L376,70 L383,75 L392,79 L399,79 L400,85 L398,100 L398,102 L394,104 L388,114 L390,118 L383,114 L381,119 L384,126 L376,130 L362,130 L353,121 L347,120 L343,101 L334,97 L329,102 L335,105 L330,109 L318,106 L314,102 L301,95 L293,89 L291,83 L286,94 L297,96 L300,103 L291,106 L288,114 L275,119 L268,136 L269,143 L272,146 L281,147 L295,155 L295,160 L309,169 L322,166 L324,178 L335,184 L329,191 L321,192 L316,190 L294,190 L295,199 L291,207 L282,213 L278,208 L272,211 L274,215 L267,222 L264,228 L271,241 L286,246 L290,249 L303,256 L312,255 L317,260 L317,268 L313,272 L317,276 L316,285 L307,289 L303,300 L306,307 L315,315 L318,320 L314,336 L322,334 L331,338 L325,355 L333,364 L329,371 L333,376 L330,379 L336,395 L335,406 L341,412 L340,418 L341,431 L336,434 L331,431 L325,433 L318,430 L318,426 L308,430 L301,438 L295,433 L291,435 L288,442 L281,447 L284,452 L281,460 L277,443 L272,430 L277,425 L278,419 L275,413 L268,408 L261,409 Z M319,437 L321,452 L317,452 L313,446 L315,434 L319,437 Z M331,433 L332,444 L322,432 L327,433 L331,433 Z" 
        fill="url(#glassGradient)" 
        stroke="rgba(255, 255, 255, 0.6)" 
        stroke-width="2" 
        filter="url(#glassShadow)" />
</svg>